<svg id="Layer_1" data-name="Layer 1" xmlns="http://www.w3.org/2000/svg" viewBox="0 0 612 792"><defs><style>.cls-1,.cls-33{fill:#fff;}.cls-1,.cls-2,.cls-24,.cls-25,.cls-3,.cls-32,.cls-33,.cls-4,.cls-40,.cls-5{stroke:#231f20;stroke-miterlimit:10;}.cls-2,.cls-25,.cls-40,.cls-5{fill:none;}.cls-2{stroke-width:5px;}.cls-3{font-size:26.51px;stroke-width:0.5px;}.cls-23,.cls-24,.cls-27,.cls-29,.cls-3,.cls-32,.cls-34,.cls-36,.cls-37,.cls-38,.cls-4,.cls-41,.cls-6{fill:#231f20;}.cls-23,.cls-27,.cls-29,.cls-3,.cls-34,.cls-36,.cls-37,.cls-38,.cls-4,.cls-41,.cls-6{font-family:LucidaConsole, Lucida Console;}.cls-4{font-size:21.28px;stroke-width:0.25px;}.cls-5{stroke-width:4px;}.cls-6{font-size:27.28px;}.cls-7{letter-spacing:-0.03em;}.cls-8{letter-spacing:-0.09em;}.cls-9{letter-spacing:-0.14em;}.cls-10{letter-spacing:-0.09em;}.cls-11{letter-spacing:-0.03em;}.cls-12{letter-spacing:-0.02em;}.cls-13{letter-spacing:-0.02em;}.cls-14{letter-spacing:-0.03em;}.cls-15{letter-spacing:-0.01em;}.cls-16{letter-spacing:-0.12em;}.cls-17{letter-spacing:-0.1em;}.cls-18{letter-spacing:-0.05em;}.cls-19{letter-spacing:-0.03em;}.cls-20{letter-spacing:-0.07em;}.cls-21{letter-spacing:0em;}.cls-22{letter-spacing:-0.04em;}.cls-23{font-size:13.12px;}.cls-24,.cls-25{stroke-width:2px;}.cls-26{fill:#39b54a;}.cls-26,.cls-28,.cls-35{opacity:0.58;}.cls-27{font-size:14.5px;}.cls-28{fill:#2b3990;}.cls-29{font-size:20px;}.cls-30{letter-spacing:-0.06em;}.cls-31{letter-spacing:-0.04em;}.cls-33{fill-opacity:0.5;}.cls-34{font-size:12px;}.cls-35{fill:#2e3192;}.cls-36{font-size:17.47px;}.cls-37{font-size:17.47px;}.cls-38{font-size:12px;}.cls-39{letter-spacing:-0.18em;}.cls-41{font-size:13.87px;}.cls-42{letter-spacing:-0.18em;}</style></defs><rect class="cls-1" width="612" height="791.49"/><rect class="cls-2" x="229.78" y="8.12" width="152.43" height="29.56"/><text class="cls-3" transform="translate(234.12 32.84)">file.root</text><text class="cls-4" transform="translate(261.13 71.21)">cascade</text><rect class="cls-5" x="253.84" y="50.93" width="104.32" height="26.63"/><text class="cls-6" transform="matrix(0.91, 0, -0.13, 0.99, 33.6, 148.79)">n</text><text class="cls-6" transform="matrix(0.91, 0, -0.13, 0.99, 86.18, 148.79)"><tspan class="cls-7">c</tspan><tspan class="cls-8" x="15.54" y="0">i</tspan><tspan x="29.57" y="0">d</tspan></text><text class="cls-6" transform="matrix(0.91, 0, -0.13, 0.99, 146.38, 148.79)"><tspan class="cls-9">E</tspan><tspan class="cls-10" x="12.73" y="0">l</tspan><tspan class="cls-11" x="26.81" y="0">e</tspan><tspan x="42.36" y="0">v</tspan></text><text class="cls-6" transform="matrix(0.91, 0, -0.13, 0.99, 210.14, 148.79)"><tspan class="cls-12">t</tspan><tspan class="cls-13" x="15.83" y="0">a</tspan><tspan class="cls-14" x="31.74" y="0">u</tspan><tspan x="47.29" y="0">s</tspan></text><text class="cls-6" transform="matrix(0.91, 0, -0.13, 0.99, 278.15, 148.79)"><tspan class="cls-15">d</tspan><tspan class="cls-16" x="16.04" y="0">e</tspan><tspan class="cls-17" x="29.16" y="0">l</tspan><tspan x="42.84" y="0">E</tspan></text><text class="cls-6" transform="matrix(0.91, 0, -0.13, 0.99, 363.58, 148.79)">I</text><text class="cls-6" transform="matrix(0.91, 0, -0.13, 0.99, 422.71, 148.79)"><tspan class="cls-18">E</tspan><tspan x="15.14" y="0">i</tspan></text><text class="cls-6" transform="matrix(0.91, 0, -0.13, 0.99, 474.43, 148.79)"><tspan class="cls-19">t</tspan><tspan class="cls-20" x="15.53" y="0">i</tspan><tspan class="cls-21" x="30.13" y="0">m</tspan><tspan x="46.61" y="0">e</tspan></text><text class="cls-6" transform="matrix(0.91, 0, -0.13, 0.99, 554.6, 148.79)"><tspan class="cls-22">E</tspan><tspan x="15.38" y="0">g</tspan></text><text class="cls-23" transform="translate(16.84 164) scale(0.91 1)">(index)</text><text class="cls-23" transform="translate(93.68 164) scale(0.91 1)">(ID)</text><text class="cls-23" transform="translate(163.29 164) scale(0.91 1)">keV</text><text class="cls-23" transform="translate(232.9 164) scale(0.91 1)">as</text><text class="cls-23" transform="translate(298.9 164) scale(0.91 1)">eV</text><text class="cls-23" transform="translate(361.28 164) scale(0.91 1)">N/A</text><text class="cls-23" transform="translate(430.89 164) scale(0.91 1)">eV</text><text class="cls-23" transform="translate(496.89 164) scale(0.91 1)">as</text><text class="cls-23" transform="translate(562.89 164) scale(0.91 1)">eV</text><path class="cls-24" d="M306,38c-.17,4,.17,8,0,12"/><line class="cls-24" x1="570.12" y1="94.58" x2="570.12" y2="123.1"/><line class="cls-24" x1="504.12" y1="94.78" x2="504.12" y2="123.1"/><line class="cls-24" x1="438.12" y1="123.1" x2="438.12" y2="94.38"/><line class="cls-24" x1="372.13" y1="94.38" x2="372.13" y2="123.1"/><path class="cls-24" d="M306.13,94.87l.05,28.23-.05-45c.17,5.41-.17,11.33,0,16.74"/><line class="cls-24" x1="240.13" y1="94.38" x2="240.13" y2="123.1"/><line class="cls-24" x1="174.14" y1="94.78" x2="174.14" y2="125.94"/><path class="cls-25" d="M41.65,94.55q34.67.12,69.41.15c153,.16,307-.66,459.55-.15"/><line class="cls-25" x1="42.15" y1="123.1" x2="42.15" y2="94.55"/><line class="cls-25" x1="108.14" y1="123.1" x2="108.14" y2="94.75"/><rect class="cls-26" x="23.02" y="30.34" width="117.41" height="17.3"/><text class="cls-27" transform="translate(30.4 44.84)">1D Array</text><rect class="cls-28" x="23.02" y="51.04" width="117.41" height="17.3"/><text class="cls-27" transform="translate(30.4 65.54)">Jagged Array</text><text class="cls-29" transform="translate(64.61 24.44)"><tspan class="cls-30">K</tspan><tspan class="cls-31" x="10.89" y="0">e</tspan><tspan x="22.19" y="0">y</tspan></text><path class="cls-32" d="M60.4,24.44l39.51.46Z"/><rect class="cls-33" x="23.02" y="72.1" width="117.41" height="16.84"/><text class="cls-34" transform="translate(30.4 85.69)">Element</text><rect class="cls-26" x="277.92" y="-30.56" width="56.16" height="588.14" transform="translate(569.51 -42.49) rotate(90)"/><rect class="cls-35" x="278.16" y="93.79" width="55.67" height="588.14" transform="translate(693.86 81.86) rotate(90)"/><rect class="cls-35" x="278.16" y="31.39" width="55.67" height="588.14" transform="translate(631.46 19.46) rotate(90)"/><rect class="cls-35" x="278.16" y="154.69" width="55.67" height="588.14" transform="translate(754.76 142.76) rotate(90)"/><rect class="cls-35" x="278.16" y="215.21" width="55.67" height="588.14" transform="translate(815.28 203.28) rotate(90)"/><rect class="cls-35" x="278.16" y="276.98" width="55.67" height="588.14" transform="translate(877.05 265.05) rotate(90)"/><rect class="cls-26" x="277.92" y="-92.38" width="56.16" height="588.14" transform="translate(507.69 -104.31) rotate(90)"/><rect class="cls-35" x="278.16" y="338.75" width="55.67" height="588.14" transform="translate(938.82 326.82) rotate(90)"/><rect class="cls-35" x="278.16" y="400.51" width="55.67" height="588.14" transform="translate(1000.58 388.58) rotate(90)"/><circle class="cls-32" cx="323.8" cy="325.46" r="5.68"/><circle class="cls-32" cx="306" cy="325.46" r="5.68"/><circle class="cls-32" cx="288.2" cy="325.46" r="5.68"/><text class="cls-36" transform="matrix(0.97, 0, -0.26, 0.97, 18.04, 343.98)">1DArray</text><rect class="cls-33" x="16.92" y="303.43" width="76.91" height="24.51"/><text class="cls-37" transform="translate(20.02 320.94)">Elev[0]</text><rect class="cls-33" x="98.83" y="309.41" width="72.4" height="18.52"/><text class="cls-38" transform="translate(100.08 323)">Elev<tspan class="cls-39" x="28.92" y="0">[0][0]</tspan></text><rect class="cls-33" x="201.25" y="309.41" width="72.4" height="18.52"/><text class="cls-38" transform="translate(202.51 323)">Elev<tspan class="cls-39" x="28.92" y="0">[0][n-1]</tspan></text><circle class="cls-32" cx="193.39" cy="318.67" r="2.28"/><circle class="cls-32" cx="186.24" cy="318.67" r="2.28"/><circle class="cls-32" cx="179.09" cy="318.67" r="2.28"/><polyline class="cls-40" points="93.83 303.43 237.45 303.43 237.45 309.41"/><line class="cls-40" x1="135.03" y1="309.41" x2="135.03" y2="303.43"/><text class="cls-41" transform="matrix(0.97, 0, -0.26, 0.97, 203.76, 339.44)">float</text><rect class="cls-33" x="338.35" y="303.43" width="76.91" height="24.51"/><text class="cls-37" transform="translate(341.45 320.94)">Elev[x]</text><rect class="cls-33" x="420.26" y="309.41" width="72.4" height="18.52"/><text class="cls-38" transform="translate(421.51 323)">Elev<tspan class="cls-39" x="28.92" y="0">[x][0]</tspan></text><rect class="cls-33" x="522.68" y="309.41" width="72.4" height="18.52"/><text class="cls-38" transform="translate(523.94 323)">Elev<tspan class="cls-39" x="28.92" y="0">[x][n-1]</tspan></text><circle class="cls-32" cx="514.82" cy="318.67" r="2.28"/><circle class="cls-32" cx="507.67" cy="318.67" r="2.28"/><circle class="cls-32" cx="500.52" cy="318.67" r="2.28"/><polyline class="cls-40" points="415.26 303.43 558.88 303.43 558.88 309.41"/><line class="cls-40" x1="456.46" y1="309.41" x2="456.46" y2="303.43"/><text class="cls-36" transform="matrix(0.97, 0, -0.26, 0.97, 341.42, 343.98)">1DArray</text><text class="cls-41" transform="matrix(0.97, 0, -0.26, 0.97, 524.67, 339.44)">float</text><circle class="cls-32" cx="323.8" cy="201.69" r="5.68"/><circle class="cls-32" cx="306" cy="201.69" r="5.68"/><circle class="cls-32" cx="288.2" cy="201.69" r="5.68"/><text class="cls-36" transform="matrix(0.97, 0, -0.26, 0.97, 18.04, 220.21)">int</text><rect class="cls-33" x="16.92" y="179.66" width="76.91" height="24.51"/><text class="cls-37" transform="translate(20.02 197.17)">n[0]</text><rect class="cls-33" x="338.35" y="179.66" width="76.91" height="24.51"/><text class="cls-37" transform="translate(341.45 197.17)">n[x]</text><text class="cls-36" transform="matrix(0.97, 0, -0.26, 0.97, 341.42, 220.21)">int</text><circle class="cls-32" cx="323.8" cy="263.51" r="5.68"/><circle class="cls-32" cx="306" cy="263.51" r="5.68"/><circle class="cls-32" cx="288.2" cy="263.51" r="5.68"/><text class="cls-36" transform="matrix(0.97, 0, -0.26, 0.97, 18.04, 282.02)">int</text><rect class="cls-33" x="16.92" y="241.47" width="76.91" height="24.51"/><text class="cls-37" transform="translate(20.02 258.98)">cid[0]</text><rect class="cls-33" x="338.35" y="241.47" width="76.91" height="24.51"/><text class="cls-37" transform="translate(341.45 258.98)">cid[x]</text><text class="cls-36" transform="matrix(0.97, 0, -0.26, 0.97, 341.42, 282.02)">int</text><circle class="cls-32" cx="323.8" cy="387.86" r="5.68"/><circle class="cls-32" cx="306" cy="387.86" r="5.68"/><circle class="cls-32" cx="288.2" cy="387.86" r="5.68"/><text class="cls-36" transform="matrix(0.97, 0, -0.26, 0.97, 18.04, 406.37)">1DArray</text><rect class="cls-33" x="16.92" y="365.82" width="76.91" height="24.51"/><text class="cls-37" transform="translate(20.02 383.33)">taus[0]</text><rect class="cls-33" x="98.83" y="371.81" width="72.4" height="18.52"/><text class="cls-38" transform="translate(100.08 385.39)">taus<tspan class="cls-39" x="28.92" y="0">[0][0]</tspan></text><rect class="cls-33" x="201.25" y="371.81" width="72.4" height="18.52"/><text class="cls-38" transform="translate(202.51 385.39)">taus<tspan class="cls-39" x="28.92" y="0">[0][n-1]</tspan></text><circle class="cls-32" cx="193.39" cy="381.07" r="2.28"/><circle class="cls-32" cx="186.24" cy="381.07" r="2.28"/><circle class="cls-32" cx="179.09" cy="381.07" r="2.28"/><polyline class="cls-40" points="93.83 365.82 237.45 365.82 237.45 371.81"/><line class="cls-40" x1="135.03" y1="371.81" x2="135.03" y2="365.82"/><text class="cls-41" transform="matrix(0.97, 0, -0.26, 0.97, 203.76, 401.83)">float</text><rect class="cls-33" x="338.35" y="365.82" width="76.91" height="24.51"/><text class="cls-37" transform="translate(341.45 383.33)">taus[x]</text><rect class="cls-33" x="420.26" y="371.81" width="72.4" height="18.52"/><text class="cls-38" transform="translate(421.51 385.39)">taus<tspan class="cls-39" x="28.92" y="0">[x][0]</tspan></text><rect class="cls-33" x="522.68" y="371.81" width="72.4" height="18.52"/><text class="cls-38" transform="translate(523.94 385.39)">taus<tspan class="cls-39" x="28.92" y="0">[x][n-1]</tspan></text><circle class="cls-32" cx="514.82" cy="381.07" r="2.28"/><circle class="cls-32" cx="507.67" cy="381.07" r="2.28"/><circle class="cls-32" cx="500.52" cy="381.07" r="2.28"/><polyline class="cls-40" points="415.26 365.82 558.88 365.82 558.88 371.81"/><line class="cls-40" x1="456.46" y1="371.81" x2="456.46" y2="365.82"/><text class="cls-36" transform="matrix(0.97, 0, -0.26, 0.97, 341.42, 406.37)">1DArray</text><text class="cls-41" transform="matrix(0.97, 0, -0.26, 0.97, 524.67, 401.83)">float</text><circle class="cls-32" cx="323.8" cy="448.76" r="5.68"/><circle class="cls-32" cx="306" cy="448.76" r="5.68"/><circle class="cls-32" cx="288.2" cy="448.76" r="5.68"/><text class="cls-36" transform="matrix(0.97, 0, -0.26, 0.97, 18.04, 467.28)">1DArray</text><rect class="cls-33" x="16.92" y="426.73" width="76.91" height="24.51"/><text class="cls-37" transform="translate(20.02 444.24)">delE[0]</text><rect class="cls-33" x="98.83" y="432.71" width="72.4" height="18.52"/><text class="cls-38" transform="translate(100.08 446.3)">delE<tspan class="cls-39" x="28.92" y="0">[0][0]</tspan></text><rect class="cls-33" x="188.25" y="432.71" width="72.4" height="18.52"/><text class="cls-38" transform="translate(189.51 446.3)">delE<tspan class="cls-39" x="28.92" y="0">[0][n-2]</tspan></text><circle class="cls-32" cx="183.53" cy="441.97" r="2.28"/><circle class="cls-32" cx="176.39" cy="441.97" r="2.28"/><polyline class="cls-40" points="93.83 426.73 226.62 426.73 226.62 432.71"/><line class="cls-40" x1="135.03" y1="432.71" x2="135.03" y2="426.73"/><text class="cls-41" transform="matrix(0.97, 0, -0.26, 0.97, 189.5, 462.74)">float</text><circle class="cls-32" cx="323.8" cy="509.28" r="5.68"/><circle class="cls-32" cx="306" cy="509.28" r="5.68"/><circle class="cls-32" cx="288.2" cy="509.28" r="5.68"/><text class="cls-36" transform="matrix(0.97, 0, -0.26, 0.97, 18.04, 527.79)">1DArray</text><rect class="cls-33" x="16.92" y="487.24" width="76.91" height="24.51"/><text class="cls-37" transform="translate(20.02 504.76)">I[0]</text><rect class="cls-33" x="98.83" y="493.23" width="72.4" height="18.52"/><text class="cls-38" transform="translate(100.08 506.82)">I<tspan class="cls-42" x="7.23" y="0">[0][0]</tspan></text><rect class="cls-33" x="188.25" y="493.23" width="72.4" height="18.52"/><text class="cls-38" transform="translate(189.51 506.82)">I<tspan class="cls-42" x="7.23" y="0">[0][n-2]</tspan></text><circle class="cls-32" cx="183.53" cy="502.49" r="2.28"/><circle class="cls-32" cx="176.39" cy="502.49" r="2.28"/><polyline class="cls-40" points="93.83 487.24 226.62 487.24 226.62 493.23"/><line class="cls-40" x1="135.03" y1="493.23" x2="135.03" y2="487.24"/><text class="cls-41" transform="matrix(0.97, 0, -0.26, 0.97, 189.5, 523.26)">float</text><circle class="cls-32" cx="323.8" cy="694.58" r="5.68"/><circle class="cls-32" cx="306" cy="694.58" r="5.68"/><circle class="cls-32" cx="288.2" cy="694.58" r="5.68"/><text class="cls-36" transform="matrix(0.97, 0, -0.26, 0.97, 18.04, 713.1)">1DArray</text><rect class="cls-33" x="16.92" y="672.55" width="76.91" height="24.51"/><text class="cls-37" transform="translate(20.02 690.06)">Eg[0]</text><rect class="cls-33" x="98.83" y="678.53" width="72.4" height="18.52"/><text class="cls-38" transform="translate(100.08 692.12)">Eg<tspan class="cls-39" x="14.46" y="0">[0][0]</tspan></text><rect class="cls-33" x="188.25" y="678.53" width="72.4" height="18.52"/><text class="cls-38" transform="translate(189.51 692.12)">Eg<tspan class="cls-39" x="14.46" y="0">[0][n-2]</tspan></text><circle class="cls-32" cx="183.53" cy="687.79" r="2.28"/><circle class="cls-32" cx="176.39" cy="687.79" r="2.28"/><polyline class="cls-40" points="93.83 672.54 224.45 672.54 224.45 678.53"/><line class="cls-40" x1="135.03" y1="678.53" x2="135.03" y2="672.55"/><text class="cls-41" transform="matrix(0.97, 0, -0.26, 0.97, 189.5, 708.56)">float</text><circle class="cls-32" cx="323.8" cy="571.05" r="5.68"/><circle class="cls-32" cx="306" cy="571.05" r="5.68"/><circle class="cls-32" cx="288.2" cy="571.05" r="5.68"/><text class="cls-36" transform="matrix(0.97, 0, -0.26, 0.97, 18.04, 589.56)">1DArray</text><rect class="cls-33" x="16.92" y="549.01" width="76.91" height="24.51"/><text class="cls-37" transform="translate(20.02 566.52)">Ei[0]</text><rect class="cls-33" x="98.83" y="555" width="72.4" height="18.52"/><text class="cls-38" transform="translate(100.08 568.58)">Ei<tspan class="cls-39" x="14.46" y="0">[0][0]</tspan></text><rect class="cls-33" x="188.25" y="555" width="72.4" height="18.52"/><text class="cls-38" transform="translate(189.51 568.58)">Ei<tspan class="cls-39" x="14.46" y="0">[0][n-2]</tspan></text><circle class="cls-32" cx="183.53" cy="564.26" r="2.28"/><circle class="cls-32" cx="176.39" cy="564.26" r="2.28"/><polyline class="cls-40" points="93.83 549.01 226.62 549.01 226.62 555"/><line class="cls-40" x1="135.03" y1="555" x2="135.03" y2="549.01"/><text class="cls-41" transform="matrix(0.97, 0, -0.26, 0.97, 189.5, 585.03)">float</text><circle class="cls-32" cx="323.8" cy="632.82" r="5.68"/><circle class="cls-32" cx="306" cy="632.82" r="5.68"/><circle class="cls-32" cx="288.2" cy="632.82" r="5.68"/><text class="cls-36" transform="matrix(0.97, 0, -0.26, 0.97, 18.04, 651.33)">1DArray</text><rect class="cls-33" x="16.92" y="610.78" width="76.91" height="24.51"/><text class="cls-37" transform="translate(20.02 628.29)">time[0]</text><rect class="cls-33" x="98.83" y="616.76" width="72.4" height="18.52"/><text class="cls-38" transform="translate(100.08 630.35)">time<tspan class="cls-39" x="28.92" y="0">[0][0]</tspan></text><rect class="cls-33" x="201.25" y="616.76" width="72.4" height="18.52"/><text class="cls-38" transform="translate(202.51 630.35)">time<tspan class="cls-39" x="28.92" y="0">[0][n-1]</tspan></text><circle class="cls-32" cx="193.39" cy="626.03" r="2.28"/><circle class="cls-32" cx="186.24" cy="626.03" r="2.28"/><circle class="cls-32" cx="179.09" cy="626.03" r="2.28"/><polyline class="cls-40" points="93.83 610.78 237.45 610.78 237.45 616.76"/><line class="cls-40" x1="135.03" y1="616.76" x2="135.03" y2="610.78"/><text class="cls-41" transform="matrix(0.97, 0, -0.26, 0.97, 203.76, 646.79)">float</text><text class="cls-36" transform="matrix(0.97, 0, -0.26, 0.97, 336.66, 467.28)">1DArray</text><rect class="cls-33" x="338.35" y="426.73" width="76.91" height="24.51"/><text class="cls-37" transform="translate(341.45 444.24)">delE[x]</text><rect class="cls-33" x="417.45" y="432.71" width="72.4" height="18.52"/><text class="cls-38" transform="translate(418.7 446.3)">delE<tspan class="cls-39" x="28.92" y="0">[x][0]</tspan></text><rect class="cls-33" x="506.88" y="432.71" width="72.4" height="18.52"/><text class="cls-38" transform="translate(508.13 446.3)">delE<tspan class="cls-39" x="28.92" y="0">[x][n-2]</tspan></text><circle class="cls-32" cx="502.16" cy="441.97" r="2.28"/><circle class="cls-32" cx="495.01" cy="441.97" r="2.28"/><polyline class="cls-40" points="412.45 426.73 545.24 426.73 545.24 432.71"/><line class="cls-40" x1="453.65" y1="432.71" x2="453.65" y2="426.73"/><text class="cls-41" transform="matrix(0.97, 0, -0.26, 0.97, 508.12, 462.74)">float</text><text class="cls-36" transform="matrix(0.97, 0, -0.26, 0.97, 339.47, 527.79)">1DArray</text><rect class="cls-33" x="338.35" y="487.24" width="76.91" height="24.51"/><text class="cls-37" transform="translate(341.45 504.75)">I[x]</text><rect class="cls-33" x="420.26" y="493.23" width="72.4" height="18.52"/><text class="cls-38" transform="translate(421.51 506.82)">I<tspan class="cls-42" x="7.23" y="0">[x][0]</tspan></text><rect class="cls-33" x="509.68" y="493.23" width="72.4" height="18.52"/><text class="cls-38" transform="translate(510.94 506.82)">I<tspan class="cls-42" x="7.23" y="0">[x][n-2]</tspan></text><circle class="cls-32" cx="504.96" cy="502.49" r="2.28"/><circle class="cls-32" cx="497.82" cy="502.49" r="2.28"/><polyline class="cls-40" points="415.26 487.24 548.04 487.24 548.04 493.23"/><line class="cls-40" x1="456.46" y1="493.23" x2="456.46" y2="487.24"/><text class="cls-41" transform="matrix(0.97, 0, -0.26, 0.97, 510.93, 523.26)">float</text><text class="cls-36" transform="matrix(0.97, 0, -0.26, 0.97, 339.47, 589.56)">1DArray</text><rect class="cls-33" x="338.35" y="549.01" width="76.91" height="24.51"/><text class="cls-37" transform="translate(341.45 566.52)">Ei[0]</text><rect class="cls-33" x="420.26" y="555" width="72.4" height="18.52"/><text class="cls-38" transform="translate(421.51 568.58)">Ei<tspan class="cls-39" x="14.46" y="0">[x][0]</tspan></text><rect class="cls-33" x="509.68" y="555" width="72.4" height="18.52"/><text class="cls-38" transform="translate(510.94 568.58)">Ei<tspan class="cls-39" x="14.46" y="0">[x][n-2]</tspan></text><circle class="cls-32" cx="504.96" cy="564.26" r="2.28"/><circle class="cls-32" cx="497.82" cy="564.26" r="2.28"/><polyline class="cls-40" points="415.26 549.01 548.04 549.01 548.04 555"/><line class="cls-40" x1="456.46" y1="555" x2="456.46" y2="549.01"/><text class="cls-41" transform="matrix(0.97, 0, -0.26, 0.97, 510.93, 585.03)">float</text><text class="cls-36" transform="matrix(0.97, 0, -0.26, 0.97, 339.47, 651.33)">1DArray</text><rect class="cls-33" x="338.35" y="610.78" width="76.91" height="24.51"/><text class="cls-37" transform="translate(341.45 628.29)">time[0]</text><rect class="cls-33" x="420.26" y="616.76" width="72.4" height="18.52"/><text class="cls-38" transform="translate(421.51 630.35)">time<tspan class="cls-39" x="28.92" y="0">[x][0]</tspan></text><rect class="cls-33" x="522.68" y="616.76" width="72.4" height="18.52"/><text class="cls-38" transform="translate(523.94 630.35)">time<tspan class="cls-39" x="28.92" y="0">[x][n-1]</tspan></text><circle class="cls-32" cx="514.82" cy="626.03" r="2.28"/><circle class="cls-32" cx="507.67" cy="626.03" r="2.28"/><circle class="cls-32" cx="500.52" cy="626.03" r="2.28"/><polyline class="cls-40" points="415.26 610.78 558.88 610.78 558.88 616.76"/><line class="cls-40" x1="456.46" y1="616.76" x2="456.46" y2="610.78"/><text class="cls-41" transform="matrix(0.97, 0, -0.26, 0.97, 525.19, 646.79)">float</text><text class="cls-36" transform="matrix(0.97, 0, -0.26, 0.97, 339.47, 713.1)">1DArray</text><rect class="cls-33" x="338.35" y="672.55" width="76.91" height="24.51"/><text class="cls-37" transform="translate(341.45 690.06)">Eg[x]</text><rect class="cls-33" x="420.26" y="678.53" width="72.4" height="18.52"/><text class="cls-38" transform="translate(421.51 692.12)">Eg<tspan class="cls-39" x="14.46" y="0">[x][0]</tspan></text><rect class="cls-33" x="509.68" y="678.53" width="72.4" height="18.52"/><text class="cls-38" transform="translate(510.94 692.12)">Eg<tspan class="cls-39" x="14.46" y="0">[x][n-2]</tspan></text><circle class="cls-32" cx="504.96" cy="687.79" r="2.28"/><circle class="cls-32" cx="497.82" cy="687.79" r="2.28"/><polyline class="cls-40" points="415.26 672.54 545.88 672.54 545.88 678.53"/><line class="cls-40" x1="456.46" y1="678.53" x2="456.46" y2="672.55"/><text class="cls-41" transform="matrix(0.97, 0, -0.26, 0.97, 510.93, 708.56)">float</text></svg>