<?xml version="1.0" encoding="utf-8" standalone="no"?>
<!DOCTYPE svg PUBLIC "-//W3C//DTD SVG 1.1//EN"
  "http://www.w3.org/Graphics/SVG/1.1/DTD/svg11.dtd">
<svg xmlns:xlink="http://www.w3.org/1999/xlink" width="1152pt" height="864pt" viewBox="0 0 1152 864" xmlns="http://www.w3.org/2000/svg" version="1.1">
 <metadata>
  <rdf:RDF xmlns:dc="http://purl.org/dc/elements/1.1/" xmlns:cc="http://creativecommons.org/ns#" xmlns:rdf="http://www.w3.org/1999/02/22-rdf-syntax-ns#">
   <cc:Work>
    <dc:type rdf:resource="http://purl.org/dc/dcmitype/StillImage"/>
    <dc:date>2023-01-05T16:05:55.678813</dc:date>
    <dc:format>image/svg+xml</dc:format>
    <dc:creator>
     <cc:Agent>
      <dc:title>Matplotlib v3.6.0, https://matplotlib.org/</dc:title>
     </cc:Agent>
    </dc:creator>
   </cc:Work>
  </rdf:RDF>
 </metadata>
 <defs>
  <style type="text/css">*{stroke-linejoin: round; stroke-linecap: butt}</style>
 </defs>
 <g id="figure_1">
  <g id="patch_1">
   <path d="M 0 864 
L 1152 864 
L 1152 0 
L 0 0 
z
" style="fill: #ffffff"/>
  </g>
  <g id="axes_1">
   <g id="patch_2">
    <path d="M 119.91 758.58 
L 1107.99 758.58 
L 1107.99 56.88 
L 119.91 56.88 
z
" style="fill: #ffffff"/>
   </g>
   <g id="matplotlib.axis_1">
    <g id="xtick_1">
     <g id="line2d_1">
      <defs>
       <path id="mb3f9f4b404" d="M 0 0 
L 0 -8 
" style="stroke: #000000; stroke-width: 2"/>
      </defs>
      <g>
       <use xlink:href="#mb3f9f4b404" x="119.91" y="758.58" style="stroke: #000000; stroke-width: 2"/>
      </g>
     </g>
     <g id="text_1">
      <!-- 0 -->
      <g transform="translate(108.788125 790.71125) scale(0.4 -0.4)">
       <defs>
        <path id="ArialMT-30" d="M 266 2259 
Q 266 3072 433 3567 
Q 600 4063 929 4331 
Q 1259 4600 1759 4600 
Q 2128 4600 2406 4451 
Q 2684 4303 2865 4023 
Q 3047 3744 3150 3342 
Q 3253 2941 3253 2259 
Q 3253 1453 3087 958 
Q 2922 463 2592 192 
Q 2263 -78 1759 -78 
Q 1097 -78 719 397 
Q 266 969 266 2259 
z
M 844 2259 
Q 844 1131 1108 757 
Q 1372 384 1759 384 
Q 2147 384 2411 759 
Q 2675 1134 2675 2259 
Q 2675 3391 2411 3762 
Q 2147 4134 1753 4134 
Q 1366 4134 1134 3806 
Q 844 3388 844 2259 
z
" transform="scale(0.015625)"/>
       </defs>
       <use xlink:href="#ArialMT-30"/>
      </g>
     </g>
    </g>
    <g id="xtick_2">
     <g id="line2d_2">
      <g>
       <use xlink:href="#mb3f9f4b404" x="243.42" y="758.58" style="stroke: #000000; stroke-width: 2"/>
      </g>
     </g>
     <g id="text_2">
      <!-- 25 -->
      <g transform="translate(221.17625 790.71125) scale(0.4 -0.4)">
       <defs>
        <path id="ArialMT-32" d="M 3222 541 
L 3222 0 
L 194 0 
Q 188 203 259 391 
Q 375 700 629 1000 
Q 884 1300 1366 1694 
Q 2113 2306 2375 2664 
Q 2638 3022 2638 3341 
Q 2638 3675 2398 3904 
Q 2159 4134 1775 4134 
Q 1369 4134 1125 3890 
Q 881 3647 878 3216 
L 300 3275 
Q 359 3922 746 4261 
Q 1134 4600 1788 4600 
Q 2447 4600 2831 4234 
Q 3216 3869 3216 3328 
Q 3216 3053 3103 2787 
Q 2991 2522 2730 2228 
Q 2469 1934 1863 1422 
Q 1356 997 1212 845 
Q 1069 694 975 541 
L 3222 541 
z
" transform="scale(0.015625)"/>
        <path id="ArialMT-35" d="M 266 1200 
L 856 1250 
Q 922 819 1161 601 
Q 1400 384 1738 384 
Q 2144 384 2425 690 
Q 2706 997 2706 1503 
Q 2706 1984 2436 2262 
Q 2166 2541 1728 2541 
Q 1456 2541 1237 2417 
Q 1019 2294 894 2097 
L 366 2166 
L 809 4519 
L 3088 4519 
L 3088 3981 
L 1259 3981 
L 1013 2750 
Q 1425 3038 1878 3038 
Q 2478 3038 2890 2622 
Q 3303 2206 3303 1553 
Q 3303 931 2941 478 
Q 2500 -78 1738 -78 
Q 1113 -78 717 272 
Q 322 622 266 1200 
z
" transform="scale(0.015625)"/>
       </defs>
       <use xlink:href="#ArialMT-32"/>
       <use xlink:href="#ArialMT-35" x="55.615234"/>
      </g>
     </g>
    </g>
    <g id="xtick_3">
     <g id="line2d_3">
      <g>
       <use xlink:href="#mb3f9f4b404" x="366.93" y="758.58" style="stroke: #000000; stroke-width: 2"/>
      </g>
     </g>
     <g id="text_3">
      <!-- 50 -->
      <g transform="translate(344.68625 790.71125) scale(0.4 -0.4)">
       <use xlink:href="#ArialMT-35"/>
       <use xlink:href="#ArialMT-30" x="55.615234"/>
      </g>
     </g>
    </g>
    <g id="xtick_4">
     <g id="line2d_4">
      <g>
       <use xlink:href="#mb3f9f4b404" x="490.44" y="758.58" style="stroke: #000000; stroke-width: 2"/>
      </g>
     </g>
     <g id="text_4">
      <!-- 75 -->
      <g transform="translate(468.19625 790.71125) scale(0.4 -0.4)">
       <defs>
        <path id="ArialMT-37" d="M 303 3981 
L 303 4522 
L 3269 4522 
L 3269 4084 
Q 2831 3619 2401 2847 
Q 1972 2075 1738 1259 
Q 1569 684 1522 0 
L 944 0 
Q 953 541 1156 1306 
Q 1359 2072 1739 2783 
Q 2119 3494 2547 3981 
L 303 3981 
z
" transform="scale(0.015625)"/>
       </defs>
       <use xlink:href="#ArialMT-37"/>
       <use xlink:href="#ArialMT-35" x="55.615234"/>
      </g>
     </g>
    </g>
    <g id="xtick_5">
     <g id="line2d_5">
      <g>
       <use xlink:href="#mb3f9f4b404" x="613.95" y="758.58" style="stroke: #000000; stroke-width: 2"/>
      </g>
     </g>
     <g id="text_5">
      <!-- 100 -->
      <g transform="translate(580.584375 790.71125) scale(0.4 -0.4)">
       <defs>
        <path id="ArialMT-31" d="M 2384 0 
L 1822 0 
L 1822 3584 
Q 1619 3391 1289 3197 
Q 959 3003 697 2906 
L 697 3450 
Q 1169 3672 1522 3987 
Q 1875 4303 2022 4600 
L 2384 4600 
L 2384 0 
z
" transform="scale(0.015625)"/>
       </defs>
       <use xlink:href="#ArialMT-31"/>
       <use xlink:href="#ArialMT-30" x="55.615234"/>
       <use xlink:href="#ArialMT-30" x="111.230469"/>
      </g>
     </g>
    </g>
    <g id="xtick_6">
     <g id="line2d_6">
      <g>
       <use xlink:href="#mb3f9f4b404" x="737.46" y="758.58" style="stroke: #000000; stroke-width: 2"/>
      </g>
     </g>
     <g id="text_6">
      <!-- 125 -->
      <g transform="translate(704.094375 790.71125) scale(0.4 -0.4)">
       <use xlink:href="#ArialMT-31"/>
       <use xlink:href="#ArialMT-32" x="55.615234"/>
       <use xlink:href="#ArialMT-35" x="111.230469"/>
      </g>
     </g>
    </g>
    <g id="xtick_7">
     <g id="line2d_7">
      <g>
       <use xlink:href="#mb3f9f4b404" x="860.97" y="758.58" style="stroke: #000000; stroke-width: 2"/>
      </g>
     </g>
     <g id="text_7">
      <!-- 150 -->
      <g transform="translate(827.604375 790.71125) scale(0.4 -0.4)">
       <use xlink:href="#ArialMT-31"/>
       <use xlink:href="#ArialMT-35" x="55.615234"/>
       <use xlink:href="#ArialMT-30" x="111.230469"/>
      </g>
     </g>
    </g>
    <g id="xtick_8">
     <g id="line2d_8">
      <g>
       <use xlink:href="#mb3f9f4b404" x="984.48" y="758.58" style="stroke: #000000; stroke-width: 2"/>
      </g>
     </g>
     <g id="text_8">
      <!-- 175 -->
      <g transform="translate(951.114375 790.71125) scale(0.4 -0.4)">
       <use xlink:href="#ArialMT-31"/>
       <use xlink:href="#ArialMT-37" x="55.615234"/>
       <use xlink:href="#ArialMT-35" x="111.230469"/>
      </g>
     </g>
    </g>
    <g id="xtick_9">
     <g id="line2d_9">
      <g>
       <use xlink:href="#mb3f9f4b404" x="1107.99" y="758.58" style="stroke: #000000; stroke-width: 2"/>
      </g>
     </g>
     <g id="text_9">
      <!-- 200 -->
      <g transform="translate(1074.624375 790.71125) scale(0.4 -0.4)">
       <use xlink:href="#ArialMT-32"/>
       <use xlink:href="#ArialMT-30" x="55.615234"/>
       <use xlink:href="#ArialMT-30" x="111.230469"/>
      </g>
     </g>
    </g>
    <g id="xtick_10">
     <g id="line2d_10">
      <defs>
       <path id="m0148490c4c" d="M 0 0 
L 0 -4 
" style="stroke: #000000"/>
      </defs>
      <g>
       <use xlink:href="#m0148490c4c" x="144.612" y="758.58" style="stroke: #000000"/>
      </g>
     </g>
    </g>
    <g id="xtick_11">
     <g id="line2d_11">
      <g>
       <use xlink:href="#m0148490c4c" x="169.314" y="758.58" style="stroke: #000000"/>
      </g>
     </g>
    </g>
    <g id="xtick_12">
     <g id="line2d_12">
      <g>
       <use xlink:href="#m0148490c4c" x="194.016" y="758.58" style="stroke: #000000"/>
      </g>
     </g>
    </g>
    <g id="xtick_13">
     <g id="line2d_13">
      <g>
       <use xlink:href="#m0148490c4c" x="218.718" y="758.58" style="stroke: #000000"/>
      </g>
     </g>
    </g>
    <g id="xtick_14">
     <g id="line2d_14">
      <g>
       <use xlink:href="#m0148490c4c" x="268.122" y="758.58" style="stroke: #000000"/>
      </g>
     </g>
    </g>
    <g id="xtick_15">
     <g id="line2d_15">
      <g>
       <use xlink:href="#m0148490c4c" x="292.824" y="758.58" style="stroke: #000000"/>
      </g>
     </g>
    </g>
    <g id="xtick_16">
     <g id="line2d_16">
      <g>
       <use xlink:href="#m0148490c4c" x="317.526" y="758.58" style="stroke: #000000"/>
      </g>
     </g>
    </g>
    <g id="xtick_17">
     <g id="line2d_17">
      <g>
       <use xlink:href="#m0148490c4c" x="342.228" y="758.58" style="stroke: #000000"/>
      </g>
     </g>
    </g>
    <g id="xtick_18">
     <g id="line2d_18">
      <g>
       <use xlink:href="#m0148490c4c" x="391.632" y="758.58" style="stroke: #000000"/>
      </g>
     </g>
    </g>
    <g id="xtick_19">
     <g id="line2d_19">
      <g>
       <use xlink:href="#m0148490c4c" x="416.334" y="758.58" style="stroke: #000000"/>
      </g>
     </g>
    </g>
    <g id="xtick_20">
     <g id="line2d_20">
      <g>
       <use xlink:href="#m0148490c4c" x="441.036" y="758.58" style="stroke: #000000"/>
      </g>
     </g>
    </g>
    <g id="xtick_21">
     <g id="line2d_21">
      <g>
       <use xlink:href="#m0148490c4c" x="465.738" y="758.58" style="stroke: #000000"/>
      </g>
     </g>
    </g>
    <g id="xtick_22">
     <g id="line2d_22">
      <g>
       <use xlink:href="#m0148490c4c" x="515.142" y="758.58" style="stroke: #000000"/>
      </g>
     </g>
    </g>
    <g id="xtick_23">
     <g id="line2d_23">
      <g>
       <use xlink:href="#m0148490c4c" x="539.844" y="758.58" style="stroke: #000000"/>
      </g>
     </g>
    </g>
    <g id="xtick_24">
     <g id="line2d_24">
      <g>
       <use xlink:href="#m0148490c4c" x="564.546" y="758.58" style="stroke: #000000"/>
      </g>
     </g>
    </g>
    <g id="xtick_25">
     <g id="line2d_25">
      <g>
       <use xlink:href="#m0148490c4c" x="589.248" y="758.58" style="stroke: #000000"/>
      </g>
     </g>
    </g>
    <g id="xtick_26">
     <g id="line2d_26">
      <g>
       <use xlink:href="#m0148490c4c" x="638.652" y="758.58" style="stroke: #000000"/>
      </g>
     </g>
    </g>
    <g id="xtick_27">
     <g id="line2d_27">
      <g>
       <use xlink:href="#m0148490c4c" x="663.354" y="758.58" style="stroke: #000000"/>
      </g>
     </g>
    </g>
    <g id="xtick_28">
     <g id="line2d_28">
      <g>
       <use xlink:href="#m0148490c4c" x="688.056" y="758.58" style="stroke: #000000"/>
      </g>
     </g>
    </g>
    <g id="xtick_29">
     <g id="line2d_29">
      <g>
       <use xlink:href="#m0148490c4c" x="712.758" y="758.58" style="stroke: #000000"/>
      </g>
     </g>
    </g>
    <g id="xtick_30">
     <g id="line2d_30">
      <g>
       <use xlink:href="#m0148490c4c" x="762.162" y="758.58" style="stroke: #000000"/>
      </g>
     </g>
    </g>
    <g id="xtick_31">
     <g id="line2d_31">
      <g>
       <use xlink:href="#m0148490c4c" x="786.864" y="758.58" style="stroke: #000000"/>
      </g>
     </g>
    </g>
    <g id="xtick_32">
     <g id="line2d_32">
      <g>
       <use xlink:href="#m0148490c4c" x="811.566" y="758.58" style="stroke: #000000"/>
      </g>
     </g>
    </g>
    <g id="xtick_33">
     <g id="line2d_33">
      <g>
       <use xlink:href="#m0148490c4c" x="836.268" y="758.58" style="stroke: #000000"/>
      </g>
     </g>
    </g>
    <g id="xtick_34">
     <g id="line2d_34">
      <g>
       <use xlink:href="#m0148490c4c" x="885.672" y="758.58" style="stroke: #000000"/>
      </g>
     </g>
    </g>
    <g id="xtick_35">
     <g id="line2d_35">
      <g>
       <use xlink:href="#m0148490c4c" x="910.374" y="758.58" style="stroke: #000000"/>
      </g>
     </g>
    </g>
    <g id="xtick_36">
     <g id="line2d_36">
      <g>
       <use xlink:href="#m0148490c4c" x="935.076" y="758.58" style="stroke: #000000"/>
      </g>
     </g>
    </g>
    <g id="xtick_37">
     <g id="line2d_37">
      <g>
       <use xlink:href="#m0148490c4c" x="959.778" y="758.58" style="stroke: #000000"/>
      </g>
     </g>
    </g>
    <g id="xtick_38">
     <g id="line2d_38">
      <g>
       <use xlink:href="#m0148490c4c" x="1009.182" y="758.58" style="stroke: #000000"/>
      </g>
     </g>
    </g>
    <g id="xtick_39">
     <g id="line2d_39">
      <g>
       <use xlink:href="#m0148490c4c" x="1033.884" y="758.58" style="stroke: #000000"/>
      </g>
     </g>
    </g>
    <g id="xtick_40">
     <g id="line2d_40">
      <g>
       <use xlink:href="#m0148490c4c" x="1058.586" y="758.58" style="stroke: #000000"/>
      </g>
     </g>
    </g>
    <g id="xtick_41">
     <g id="line2d_41">
      <g>
       <use xlink:href="#m0148490c4c" x="1083.288" y="758.58" style="stroke: #000000"/>
      </g>
     </g>
    </g>
    <g id="text_10">
     <!-- Energy Yielded ($\mathrm{eV}_{\mathrm{ee}}$) -->
     <g transform="translate(365.7 839.16125) scale(0.5 -0.5)">
      <defs>
       <path id="ArialMT-45" d="M 506 0 
L 506 4581 
L 3819 4581 
L 3819 4041 
L 1113 4041 
L 1113 2638 
L 3647 2638 
L 3647 2100 
L 1113 2100 
L 1113 541 
L 3925 541 
L 3925 0 
L 506 0 
z
" transform="scale(0.015625)"/>
       <path id="ArialMT-6e" d="M 422 0 
L 422 3319 
L 928 3319 
L 928 2847 
Q 1294 3394 1984 3394 
Q 2284 3394 2536 3286 
Q 2788 3178 2913 3003 
Q 3038 2828 3088 2588 
Q 3119 2431 3119 2041 
L 3119 0 
L 2556 0 
L 2556 2019 
Q 2556 2363 2490 2533 
Q 2425 2703 2258 2804 
Q 2091 2906 1866 2906 
Q 1506 2906 1245 2678 
Q 984 2450 984 1813 
L 984 0 
L 422 0 
z
" transform="scale(0.015625)"/>
       <path id="ArialMT-65" d="M 2694 1069 
L 3275 997 
Q 3138 488 2766 206 
Q 2394 -75 1816 -75 
Q 1088 -75 661 373 
Q 234 822 234 1631 
Q 234 2469 665 2931 
Q 1097 3394 1784 3394 
Q 2450 3394 2872 2941 
Q 3294 2488 3294 1666 
Q 3294 1616 3291 1516 
L 816 1516 
Q 847 969 1125 678 
Q 1403 388 1819 388 
Q 2128 388 2347 550 
Q 2566 713 2694 1069 
z
M 847 1978 
L 2700 1978 
Q 2663 2397 2488 2606 
Q 2219 2931 1791 2931 
Q 1403 2931 1139 2672 
Q 875 2413 847 1978 
z
" transform="scale(0.015625)"/>
       <path id="ArialMT-72" d="M 416 0 
L 416 3319 
L 922 3319 
L 922 2816 
Q 1116 3169 1280 3281 
Q 1444 3394 1641 3394 
Q 1925 3394 2219 3213 
L 2025 2691 
Q 1819 2813 1613 2813 
Q 1428 2813 1281 2702 
Q 1134 2591 1072 2394 
Q 978 2094 978 1738 
L 978 0 
L 416 0 
z
" transform="scale(0.015625)"/>
       <path id="ArialMT-67" d="M 319 -275 
L 866 -356 
Q 900 -609 1056 -725 
Q 1266 -881 1628 -881 
Q 2019 -881 2231 -725 
Q 2444 -569 2519 -288 
Q 2563 -116 2559 434 
Q 2191 0 1641 0 
Q 956 0 581 494 
Q 206 988 206 1678 
Q 206 2153 378 2554 
Q 550 2956 876 3175 
Q 1203 3394 1644 3394 
Q 2231 3394 2613 2919 
L 2613 3319 
L 3131 3319 
L 3131 450 
Q 3131 -325 2973 -648 
Q 2816 -972 2473 -1159 
Q 2131 -1347 1631 -1347 
Q 1038 -1347 672 -1080 
Q 306 -813 319 -275 
z
M 784 1719 
Q 784 1066 1043 766 
Q 1303 466 1694 466 
Q 2081 466 2343 764 
Q 2606 1063 2606 1700 
Q 2606 2309 2336 2618 
Q 2066 2928 1684 2928 
Q 1309 2928 1046 2623 
Q 784 2319 784 1719 
z
" transform="scale(0.015625)"/>
       <path id="ArialMT-79" d="M 397 -1278 
L 334 -750 
Q 519 -800 656 -800 
Q 844 -800 956 -737 
Q 1069 -675 1141 -563 
Q 1194 -478 1313 -144 
Q 1328 -97 1363 -6 
L 103 3319 
L 709 3319 
L 1400 1397 
Q 1534 1031 1641 628 
Q 1738 1016 1872 1384 
L 2581 3319 
L 3144 3319 
L 1881 -56 
Q 1678 -603 1566 -809 
Q 1416 -1088 1222 -1217 
Q 1028 -1347 759 -1347 
Q 597 -1347 397 -1278 
z
" transform="scale(0.015625)"/>
       <path id="ArialMT-20" transform="scale(0.015625)"/>
       <path id="ArialMT-59" d="M 1784 0 
L 1784 1941 
L 19 4581 
L 756 4581 
L 1659 3200 
Q 1909 2813 2125 2425 
Q 2331 2784 2625 3234 
L 3513 4581 
L 4219 4581 
L 2391 1941 
L 2391 0 
L 1784 0 
z
" transform="scale(0.015625)"/>
       <path id="ArialMT-69" d="M 425 3934 
L 425 4581 
L 988 4581 
L 988 3934 
L 425 3934 
z
M 425 0 
L 425 3319 
L 988 3319 
L 988 0 
L 425 0 
z
" transform="scale(0.015625)"/>
       <path id="ArialMT-6c" d="M 409 0 
L 409 4581 
L 972 4581 
L 972 0 
L 409 0 
z
" transform="scale(0.015625)"/>
       <path id="ArialMT-64" d="M 2575 0 
L 2575 419 
Q 2259 -75 1647 -75 
Q 1250 -75 917 144 
Q 584 363 401 755 
Q 219 1147 219 1656 
Q 219 2153 384 2558 
Q 550 2963 881 3178 
Q 1213 3394 1622 3394 
Q 1922 3394 2156 3267 
Q 2391 3141 2538 2938 
L 2538 4581 
L 3097 4581 
L 3097 0 
L 2575 0 
z
M 797 1656 
Q 797 1019 1065 703 
Q 1334 388 1700 388 
Q 2069 388 2326 689 
Q 2584 991 2584 1609 
Q 2584 2291 2321 2609 
Q 2059 2928 1675 2928 
Q 1300 2928 1048 2622 
Q 797 2316 797 1656 
z
" transform="scale(0.015625)"/>
       <path id="ArialMT-28" d="M 1497 -1347 
Q 1031 -759 709 28 
Q 388 816 388 1659 
Q 388 2403 628 3084 
Q 909 3875 1497 4659 
L 1900 4659 
Q 1522 4009 1400 3731 
Q 1209 3300 1100 2831 
Q 966 2247 966 1656 
Q 966 153 1900 -1347 
L 1497 -1347 
z
" transform="scale(0.015625)"/>
       <path id="DejaVuSans-65" d="M 3597 1894 
L 3597 1613 
L 953 1613 
Q 991 1019 1311 708 
Q 1631 397 2203 397 
Q 2534 397 2845 478 
Q 3156 559 3463 722 
L 3463 178 
Q 3153 47 2828 -22 
Q 2503 -91 2169 -91 
Q 1331 -91 842 396 
Q 353 884 353 1716 
Q 353 2575 817 3079 
Q 1281 3584 2069 3584 
Q 2775 3584 3186 3129 
Q 3597 2675 3597 1894 
z
M 3022 2063 
Q 3016 2534 2758 2815 
Q 2500 3097 2075 3097 
Q 1594 3097 1305 2825 
Q 1016 2553 972 2059 
L 3022 2063 
z
" transform="scale(0.015625)"/>
       <path id="DejaVuSans-56" d="M 1831 0 
L 50 4666 
L 709 4666 
L 2188 738 
L 3669 4666 
L 4325 4666 
L 2547 0 
L 1831 0 
z
" transform="scale(0.015625)"/>
       <path id="ArialMT-29" d="M 791 -1347 
L 388 -1347 
Q 1322 153 1322 1656 
Q 1322 2244 1188 2822 
Q 1081 3291 891 3722 
Q 769 4003 388 4659 
L 791 4659 
Q 1378 3875 1659 3084 
Q 1900 2403 1900 1659 
Q 1900 816 1576 28 
Q 1253 -759 791 -1347 
z
" transform="scale(0.015625)"/>
      </defs>
      <use xlink:href="#ArialMT-45" transform="translate(0 0.09375)"/>
      <use xlink:href="#ArialMT-6e" transform="translate(66.699219 0.09375)"/>
      <use xlink:href="#ArialMT-65" transform="translate(122.314453 0.09375)"/>
      <use xlink:href="#ArialMT-72" transform="translate(177.929688 0.09375)"/>
      <use xlink:href="#ArialMT-67" transform="translate(211.230469 0.09375)"/>
      <use xlink:href="#ArialMT-79" transform="translate(266.845703 0.09375)"/>
      <use xlink:href="#ArialMT-20" transform="translate(316.845703 0.09375)"/>
      <use xlink:href="#ArialMT-59" transform="translate(344.628906 0.09375)"/>
      <use xlink:href="#ArialMT-69" transform="translate(411.328125 0.09375)"/>
      <use xlink:href="#ArialMT-65" transform="translate(433.544922 0.09375)"/>
      <use xlink:href="#ArialMT-6c" transform="translate(489.160156 0.09375)"/>
      <use xlink:href="#ArialMT-64" transform="translate(511.376953 0.09375)"/>
      <use xlink:href="#ArialMT-65" transform="translate(566.992188 0.09375)"/>
      <use xlink:href="#ArialMT-64" transform="translate(622.607422 0.09375)"/>
      <use xlink:href="#ArialMT-20" transform="translate(678.222656 0.09375)"/>
      <use xlink:href="#ArialMT-28" transform="translate(706.005859 0.09375)"/>
      <use xlink:href="#DejaVuSans-65" transform="translate(739.306641 0.09375)"/>
      <use xlink:href="#DejaVuSans-56" transform="translate(800.830078 0.09375)"/>
      <use xlink:href="#DejaVuSans-65" transform="translate(870.195312 -16.3125) scale(0.7)"/>
      <use xlink:href="#DejaVuSans-65" transform="translate(913.261719 -16.3125) scale(0.7)"/>
      <use xlink:href="#ArialMT-29" transform="translate(959.0625 0.09375)"/>
     </g>
    </g>
   </g>
   <g id="matplotlib.axis_2">
    <g id="ytick_1">
     <g id="line2d_42">
      <defs>
       <path id="md24ca1c5cb" d="M 0 0 
L 8 0 
" style="stroke: #000000; stroke-width: 2"/>
      </defs>
      <g>
       <use xlink:href="#md24ca1c5cb" x="119.91" y="758.58" style="stroke: #000000; stroke-width: 2"/>
      </g>
     </g>
     <g id="text_11">
      <!-- 0.0 -->
      <g transform="translate(60.81 772.895625) scale(0.4 -0.4)">
       <defs>
        <path id="ArialMT-2e" d="M 581 0 
L 581 641 
L 1222 641 
L 1222 0 
L 581 0 
z
" transform="scale(0.015625)"/>
       </defs>
       <use xlink:href="#ArialMT-30"/>
       <use xlink:href="#ArialMT-2e" x="55.615234"/>
       <use xlink:href="#ArialMT-30" x="83.398438"/>
      </g>
     </g>
    </g>
    <g id="ytick_2">
     <g id="line2d_43">
      <g>
       <use xlink:href="#md24ca1c5cb" x="119.91" y="641.63" style="stroke: #000000; stroke-width: 2"/>
      </g>
     </g>
     <g id="text_12">
      <!-- 0.5 -->
      <g transform="translate(60.81 655.945625) scale(0.4 -0.4)">
       <use xlink:href="#ArialMT-30"/>
       <use xlink:href="#ArialMT-2e" x="55.615234"/>
       <use xlink:href="#ArialMT-35" x="83.398438"/>
      </g>
     </g>
    </g>
    <g id="ytick_3">
     <g id="line2d_44">
      <g>
       <use xlink:href="#md24ca1c5cb" x="119.91" y="524.68" style="stroke: #000000; stroke-width: 2"/>
      </g>
     </g>
     <g id="text_13">
      <!-- 1.0 -->
      <g transform="translate(60.81 538.995625) scale(0.4 -0.4)">
       <use xlink:href="#ArialMT-31"/>
       <use xlink:href="#ArialMT-2e" x="55.615234"/>
       <use xlink:href="#ArialMT-30" x="83.398438"/>
      </g>
     </g>
    </g>
    <g id="ytick_4">
     <g id="line2d_45">
      <g>
       <use xlink:href="#md24ca1c5cb" x="119.91" y="407.73" style="stroke: #000000; stroke-width: 2"/>
      </g>
     </g>
     <g id="text_14">
      <!-- 1.5 -->
      <g transform="translate(60.81 422.045625) scale(0.4 -0.4)">
       <use xlink:href="#ArialMT-31"/>
       <use xlink:href="#ArialMT-2e" x="55.615234"/>
       <use xlink:href="#ArialMT-35" x="83.398438"/>
      </g>
     </g>
    </g>
    <g id="ytick_5">
     <g id="line2d_46">
      <g>
       <use xlink:href="#md24ca1c5cb" x="119.91" y="290.78" style="stroke: #000000; stroke-width: 2"/>
      </g>
     </g>
     <g id="text_15">
      <!-- 2.0 -->
      <g transform="translate(60.81 305.095625) scale(0.4 -0.4)">
       <use xlink:href="#ArialMT-32"/>
       <use xlink:href="#ArialMT-2e" x="55.615234"/>
       <use xlink:href="#ArialMT-30" x="83.398438"/>
      </g>
     </g>
    </g>
    <g id="ytick_6">
     <g id="line2d_47">
      <g>
       <use xlink:href="#md24ca1c5cb" x="119.91" y="173.83" style="stroke: #000000; stroke-width: 2"/>
      </g>
     </g>
     <g id="text_16">
      <!-- 2.5 -->
      <g transform="translate(60.81 188.145625) scale(0.4 -0.4)">
       <use xlink:href="#ArialMT-32"/>
       <use xlink:href="#ArialMT-2e" x="55.615234"/>
       <use xlink:href="#ArialMT-35" x="83.398438"/>
      </g>
     </g>
    </g>
    <g id="ytick_7">
     <g id="line2d_48">
      <g>
       <use xlink:href="#md24ca1c5cb" x="119.91" y="56.88" style="stroke: #000000; stroke-width: 2"/>
      </g>
     </g>
     <g id="text_17">
      <!-- 3.0 -->
      <g transform="translate(60.81 71.195625) scale(0.4 -0.4)">
       <defs>
        <path id="ArialMT-33" d="M 269 1209 
L 831 1284 
Q 928 806 1161 595 
Q 1394 384 1728 384 
Q 2125 384 2398 659 
Q 2672 934 2672 1341 
Q 2672 1728 2419 1979 
Q 2166 2231 1775 2231 
Q 1616 2231 1378 2169 
L 1441 2663 
Q 1497 2656 1531 2656 
Q 1891 2656 2178 2843 
Q 2466 3031 2466 3422 
Q 2466 3731 2256 3934 
Q 2047 4138 1716 4138 
Q 1388 4138 1169 3931 
Q 950 3725 888 3313 
L 325 3413 
Q 428 3978 793 4289 
Q 1159 4600 1703 4600 
Q 2078 4600 2393 4439 
Q 2709 4278 2876 4000 
Q 3044 3722 3044 3409 
Q 3044 3113 2884 2869 
Q 2725 2625 2413 2481 
Q 2819 2388 3044 2092 
Q 3269 1797 3269 1353 
Q 3269 753 2831 336 
Q 2394 -81 1725 -81 
Q 1122 -81 723 278 
Q 325 638 269 1209 
z
" transform="scale(0.015625)"/>
       </defs>
       <use xlink:href="#ArialMT-33"/>
       <use xlink:href="#ArialMT-2e" x="55.615234"/>
       <use xlink:href="#ArialMT-30" x="83.398438"/>
      </g>
     </g>
    </g>
    <g id="ytick_8">
     <g id="line2d_49">
      <defs>
       <path id="m4096741b62" d="M 0 0 
L 4 0 
" style="stroke: #000000"/>
      </defs>
      <g>
       <use xlink:href="#m4096741b62" x="119.91" y="735.19" style="stroke: #000000"/>
      </g>
     </g>
    </g>
    <g id="ytick_9">
     <g id="line2d_50">
      <g>
       <use xlink:href="#m4096741b62" x="119.91" y="711.8" style="stroke: #000000"/>
      </g>
     </g>
    </g>
    <g id="ytick_10">
     <g id="line2d_51">
      <g>
       <use xlink:href="#m4096741b62" x="119.91" y="688.41" style="stroke: #000000"/>
      </g>
     </g>
    </g>
    <g id="ytick_11">
     <g id="line2d_52">
      <g>
       <use xlink:href="#m4096741b62" x="119.91" y="665.02" style="stroke: #000000"/>
      </g>
     </g>
    </g>
    <g id="ytick_12">
     <g id="line2d_53">
      <g>
       <use xlink:href="#m4096741b62" x="119.91" y="618.24" style="stroke: #000000"/>
      </g>
     </g>
    </g>
    <g id="ytick_13">
     <g id="line2d_54">
      <g>
       <use xlink:href="#m4096741b62" x="119.91" y="594.85" style="stroke: #000000"/>
      </g>
     </g>
    </g>
    <g id="ytick_14">
     <g id="line2d_55">
      <g>
       <use xlink:href="#m4096741b62" x="119.91" y="571.46" style="stroke: #000000"/>
      </g>
     </g>
    </g>
    <g id="ytick_15">
     <g id="line2d_56">
      <g>
       <use xlink:href="#m4096741b62" x="119.91" y="548.07" style="stroke: #000000"/>
      </g>
     </g>
    </g>
    <g id="ytick_16">
     <g id="line2d_57">
      <g>
       <use xlink:href="#m4096741b62" x="119.91" y="501.29" style="stroke: #000000"/>
      </g>
     </g>
    </g>
    <g id="ytick_17">
     <g id="line2d_58">
      <g>
       <use xlink:href="#m4096741b62" x="119.91" y="477.9" style="stroke: #000000"/>
      </g>
     </g>
    </g>
    <g id="ytick_18">
     <g id="line2d_59">
      <g>
       <use xlink:href="#m4096741b62" x="119.91" y="454.51" style="stroke: #000000"/>
      </g>
     </g>
    </g>
    <g id="ytick_19">
     <g id="line2d_60">
      <g>
       <use xlink:href="#m4096741b62" x="119.91" y="431.12" style="stroke: #000000"/>
      </g>
     </g>
    </g>
    <g id="ytick_20">
     <g id="line2d_61">
      <g>
       <use xlink:href="#m4096741b62" x="119.91" y="384.34" style="stroke: #000000"/>
      </g>
     </g>
    </g>
    <g id="ytick_21">
     <g id="line2d_62">
      <g>
       <use xlink:href="#m4096741b62" x="119.91" y="360.95" style="stroke: #000000"/>
      </g>
     </g>
    </g>
    <g id="ytick_22">
     <g id="line2d_63">
      <g>
       <use xlink:href="#m4096741b62" x="119.91" y="337.56" style="stroke: #000000"/>
      </g>
     </g>
    </g>
    <g id="ytick_23">
     <g id="line2d_64">
      <g>
       <use xlink:href="#m4096741b62" x="119.91" y="314.17" style="stroke: #000000"/>
      </g>
     </g>
    </g>
    <g id="ytick_24">
     <g id="line2d_65">
      <g>
       <use xlink:href="#m4096741b62" x="119.91" y="267.39" style="stroke: #000000"/>
      </g>
     </g>
    </g>
    <g id="ytick_25">
     <g id="line2d_66">
      <g>
       <use xlink:href="#m4096741b62" x="119.91" y="244" style="stroke: #000000"/>
      </g>
     </g>
    </g>
    <g id="ytick_26">
     <g id="line2d_67">
      <g>
       <use xlink:href="#m4096741b62" x="119.91" y="220.61" style="stroke: #000000"/>
      </g>
     </g>
    </g>
    <g id="ytick_27">
     <g id="line2d_68">
      <g>
       <use xlink:href="#m4096741b62" x="119.91" y="197.22" style="stroke: #000000"/>
      </g>
     </g>
    </g>
    <g id="ytick_28">
     <g id="line2d_69">
      <g>
       <use xlink:href="#m4096741b62" x="119.91" y="150.44" style="stroke: #000000"/>
      </g>
     </g>
    </g>
    <g id="ytick_29">
     <g id="line2d_70">
      <g>
       <use xlink:href="#m4096741b62" x="119.91" y="127.05" style="stroke: #000000"/>
      </g>
     </g>
    </g>
    <g id="ytick_30">
     <g id="line2d_71">
      <g>
       <use xlink:href="#m4096741b62" x="119.91" y="103.66" style="stroke: #000000"/>
      </g>
     </g>
    </g>
    <g id="ytick_31">
     <g id="line2d_72">
      <g>
       <use xlink:href="#m4096741b62" x="119.91" y="80.27" style="stroke: #000000"/>
      </g>
     </g>
    </g>
    <g id="text_18">
     <!-- PDF -->
     <g transform="translate(46.8725 457.73) rotate(-90) scale(0.5 -0.5)">
      <defs>
       <path id="ArialMT-50" d="M 494 0 
L 494 4581 
L 2222 4581 
Q 2678 4581 2919 4538 
Q 3256 4481 3484 4323 
Q 3713 4166 3852 3881 
Q 3991 3597 3991 3256 
Q 3991 2672 3619 2267 
Q 3247 1863 2275 1863 
L 1100 1863 
L 1100 0 
L 494 0 
z
M 1100 2403 
L 2284 2403 
Q 2872 2403 3119 2622 
Q 3366 2841 3366 3238 
Q 3366 3525 3220 3729 
Q 3075 3934 2838 4000 
Q 2684 4041 2272 4041 
L 1100 4041 
L 1100 2403 
z
" transform="scale(0.015625)"/>
       <path id="ArialMT-44" d="M 494 0 
L 494 4581 
L 2072 4581 
Q 2606 4581 2888 4516 
Q 3281 4425 3559 4188 
Q 3922 3881 4101 3404 
Q 4281 2928 4281 2316 
Q 4281 1794 4159 1391 
Q 4038 988 3847 723 
Q 3656 459 3429 307 
Q 3203 156 2883 78 
Q 2563 0 2147 0 
L 494 0 
z
M 1100 541 
L 2078 541 
Q 2531 541 2789 625 
Q 3047 709 3200 863 
Q 3416 1078 3536 1442 
Q 3656 1806 3656 2325 
Q 3656 3044 3420 3430 
Q 3184 3816 2847 3947 
Q 2603 4041 2063 4041 
L 1100 4041 
L 1100 541 
z
" transform="scale(0.015625)"/>
       <path id="ArialMT-46" d="M 525 0 
L 525 4581 
L 3616 4581 
L 3616 4041 
L 1131 4041 
L 1131 2622 
L 3281 2622 
L 3281 2081 
L 1131 2081 
L 1131 0 
L 525 0 
z
" transform="scale(0.015625)"/>
      </defs>
      <use xlink:href="#ArialMT-50"/>
      <use xlink:href="#ArialMT-44" x="66.699219"/>
      <use xlink:href="#ArialMT-46" x="138.916016"/>
     </g>
    </g>
   </g>
   <g id="patch_3">
    <path d="M 119.91 758.58 
L 119.91 -1 
M 159.4332 -1 
L 159.4332 750.094602 
L 198.9564 750.094602 
L 198.9564 734.18448 
L 238.4796 734.18448 
L 238.4796 713.501322 
L 278.0028 713.501322 
L 278.0028 704.485587 
L 317.526 704.485587 
L 317.526 678.499055 
L 357.0492 678.499055 
L 357.0492 594.175411 
L 396.5724 594.175411 
L 396.5724 422.876436 
L 436.0956 422.876436 
L 436.0956 584.099001 
L 475.6188 584.099001 
L 475.6188 619.631605 
L 515.142 619.631605 
L 515.142 671.074332 
L 554.6652 671.074332 
L 554.6652 658.346234 
L 594.1884 658.346234 
L 594.1884 719.335034 
L 633.7116 719.335034 
L 633.7116 738.427179 
L 673.2348 738.427179 
L 673.2348 730.472119 
L 712.758 730.472119 
L 712.758 726.759757 
L 752.2812 726.759757 
L 752.2812 740.548529 
L 791.8044 740.548529 
L 791.8044 754.867638 
L 831.3276 754.867638 
L 831.3276 754.337301 
L 870.8508 754.337301 
L 870.8508 754.867638 
L 910.374 754.867638 
L 910.374 756.988988 
L 989.4204 756.988988 
L 989.4204 757.519325 
L 1028.9436 757.519325 
L 1028.9436 758.58 
L 1153 758.58 
L 1153 758.58 
" clip-path="url(#pa6eecd2e34)" style="fill: none; opacity: 0.7; stroke: #000000; stroke-width: 2; stroke-linejoin: miter"/>
   </g>
   <g id="patch_4">
    <path d="M 119.91 758.58 
L 119.91 -1 
M 159.4332 -1 
L 159.4332 672.870949 
L 198.9564 672.870949 
L 198.9564 594.66144 
L 238.4796 594.66144 
L 238.4796 427.528791 
L 278.0028 427.528791 
L 278.0028 575.376904 
L 317.526 575.376904 
L 317.526 588.768943 
L 357.0492 588.768943 
L 357.0492 651.443686 
L 396.5724 651.443686 
L 396.5724 680.906173 
L 436.0956 680.906173 
L 436.0956 729.653195 
L 475.6188 729.653195 
L 475.6188 739.831145 
L 515.142 739.831145 
L 515.142 731.26024 
L 554.6652 731.26024 
L 554.6652 726.439106 
L 594.1884 726.439106 
L 594.1884 738.2241 
L 633.7116 738.2241 
L 633.7116 755.901592 
L 673.2348 755.901592 
L 673.2348 754.830229 
L 752.2812 754.830229 
L 752.2812 756.972955 
L 791.8044 756.972955 
L 791.8044 756.437274 
L 831.3276 756.437274 
L 831.3276 757.508637 
L 870.8508 757.508637 
L 870.8508 758.58 
L 1153 758.58 
L 1153 758.58 
" clip-path="url(#pa6eecd2e34)" style="fill: none; opacity: 0.7; stroke-dasharray: 7.4,3.2; stroke-dashoffset: 0; stroke: #000000; stroke-width: 2; stroke-linejoin: miter"/>
   </g>
   <g id="patch_5">
    <path d="M 119.91 758.58 
L 119.91 -207.822723 
L 159.4332 -207.822723 
L 159.4332 111.766439 
L 198.9564 111.766439 
L 198.9564 419.357374 
L 238.4796 419.357374 
L 238.4796 506.617213 
L 278.0028 506.617213 
L 278.0028 572.062093 
L 317.526 572.062093 
L 317.526 608.056777 
L 357.0492 608.056777 
L 357.0492 641.324591 
L 396.5724 641.324591 
L 396.5724 680.591518 
L 436.0956 680.591518 
L 436.0956 706.76947 
L 475.6188 706.76947 
L 475.6188 724.221438 
L 515.142 724.221438 
L 515.142 726.402934 
L 554.6652 726.402934 
L 554.6652 737.855788 
L 594.1884 737.855788 
L 594.1884 749.308642 
L 633.7116 749.308642 
L 633.7116 748.217894 
L 673.2348 748.217894 
L 673.2348 746.036398 
L 712.758 746.036398 
L 712.758 752.580886 
L 752.2812 752.580886 
L 752.2812 754.217008 
L 791.8044 754.217008 
L 791.8044 757.489252 
L 831.3276 757.489252 
L 831.3276 758.034626 
L 870.8508 758.034626 
L 870.8508 757.489252 
L 910.374 757.489252 
L 910.374 756.943878 
L 949.8972 756.943878 
L 949.8972 757.489252 
L 989.4204 757.489252 
L 989.4204 758.58 
L 1028.9436 758.58 
L 1028.9436 758.58 
L 1068.4668 758.58 
L 1068.4668 758.58 
L 1107.99 758.58 
L 1107.99 758.58 
L 1147.5132 758.58 
L 1147.5132 758.58 
L 1187.0364 758.58 
L 1187.0364 758.58 
L 1226.5596 758.58 
L 1226.5596 758.58 
L 1266.0828 758.58 
L 1266.0828 758.58 
L 1305.606 758.58 
L 1305.606 758.58 
L 1345.1292 758.58 
L 1345.1292 758.58 
L 1384.6524 758.58 
L 1384.6524 758.58 
L 1424.1756 758.58 
L 1424.1756 758.58 
L 1463.6988 758.58 
L 1463.6988 758.58 
L 1503.222 758.58 
L 1503.222 758.58 
L 1542.7452 758.58 
L 1542.7452 758.58 
L 1582.2684 758.58 
L 1582.2684 758.58 
L 1621.7916 758.58 
L 1621.7916 758.58 
L 1661.3148 758.58 
L 1661.3148 758.58 
L 1700.838 758.58 
L 1700.838 758.58 
L 1740.3612 758.58 
L 1740.3612 758.58 
L 1779.8844 758.58 
L 1779.8844 758.58 
L 1819.4076 758.58 
L 1819.4076 758.58 
L 1858.9308 758.58 
L 1858.9308 758.58 
L 1898.454 758.58 
L 1898.454 758.58 
L 1937.9772 758.58 
L 1937.9772 758.58 
L 1977.5004 758.58 
L 1977.5004 758.58 
L 2017.0236 758.58 
L 2017.0236 758.58 
L 2056.5468 758.58 
L 2056.5468 758.58 
L 2096.07 758.58 
L 2096.07 758.58 
L 2135.5932 758.58 
L 2135.5932 758.58 
L 2175.1164 758.58 
L 2175.1164 758.58 
L 2214.6396 758.58 
L 2214.6396 758.58 
L 2254.1628 758.58 
L 2254.1628 758.58 
L 2293.686 758.58 
L 2293.686 758.58 
L 2333.2092 758.58 
L 2333.2092 758.58 
L 2372.7324 758.58 
L 2372.7324 758.58 
L 2412.2556 758.58 
L 2412.2556 758.58 
L 2451.7788 758.58 
L 2451.7788 758.58 
L 2491.302 758.58 
L 2491.302 758.58 
L 2530.8252 758.58 
L 2530.8252 758.58 
L 2570.3484 758.58 
L 2570.3484 758.58 
L 2609.8716 758.58 
L 2609.8716 758.58 
L 2649.3948 758.58 
L 2649.3948 758.58 
L 2688.918 758.58 
L 2688.918 758.58 
L 2728.4412 758.58 
L 2728.4412 758.58 
L 2767.9644 758.58 
L 2767.9644 758.58 
L 2807.4876 758.58 
L 2807.4876 758.58 
L 2847.0108 758.58 
L 2847.0108 758.58 
L 2886.534 758.58 
L 2886.534 758.58 
L 2926.0572 758.58 
L 2926.0572 758.58 
L 2965.5804 758.58 
L 2965.5804 758.58 
L 3005.1036 758.58 
L 3005.1036 758.58 
L 3044.6268 758.58 
L 3044.6268 758.58 
L 3084.15 758.58 
L 3084.15 758.58 
L 3123.6732 758.58 
L 3123.6732 758.58 
L 3163.1964 758.58 
L 3163.1964 758.58 
" clip-path="url(#pa6eecd2e34)" style="fill: #1f77b4; opacity: 0.6; stroke: #000080; stroke-width: 3; stroke-linejoin: miter"/>
   </g>
   <g id="patch_6">
    <path d="M 119.91 758.58 
L 119.91 -104.8449 
L 159.4332 -104.8449 
L 159.4332 236.064562 
L 198.9564 236.064562 
L 198.9564 559.981653 
L 238.4796 559.981653 
L 238.4796 666.183977 
L 278.0028 666.183977 
L 278.0028 671.494094 
L 317.526 671.494094 
L 317.526 639.102385 
L 357.0492 639.102385 
L 357.0492 594.497408 
L 396.5724 594.497408 
L 396.5724 583.346164 
L 436.0956 583.346164 
L 436.0956 587.063246 
L 475.6188 587.063246 
L 475.6188 630.606199 
L 515.142 630.606199 
L 515.142 639.633396 
L 554.6652 639.633396 
L 554.6652 684.238373 
L 594.1884 684.238373 
L 594.1884 700.699733 
L 633.7116 700.699733 
L 633.7116 716.630082 
L 673.2348 716.630082 
L 673.2348 727.781326 
L 712.758 727.781326 
L 712.758 734.153465 
L 752.2812 734.153465 
L 752.2812 744.773698 
L 791.8044 744.773698 
L 791.8044 749.021791 
L 831.3276 749.021791 
L 831.3276 747.428756 
L 870.8508 747.428756 
L 870.8508 750.083814 
L 910.374 750.083814 
L 910.374 754.862919 
L 949.8972 754.862919 
L 949.8972 756.455954 
L 989.4204 756.455954 
L 989.4204 758.048988 
L 1028.9436 758.048988 
L 1028.9436 757.517977 
L 1068.4668 757.517977 
L 1068.4668 757.517977 
L 1107.99 757.517977 
L 1107.99 756.986965 
L 1147.5132 756.986965 
L 1147.5132 758.58 
L 1187.0364 758.58 
L 1187.0364 758.58 
L 1226.5596 758.58 
L 1226.5596 758.58 
L 1266.0828 758.58 
L 1266.0828 758.58 
L 1305.606 758.58 
L 1305.606 758.58 
L 1345.1292 758.58 
L 1345.1292 758.58 
L 1384.6524 758.58 
L 1384.6524 758.58 
L 1424.1756 758.58 
L 1424.1756 758.58 
L 1463.6988 758.58 
L 1463.6988 758.58 
L 1503.222 758.58 
L 1503.222 758.58 
L 1542.7452 758.58 
L 1542.7452 758.58 
L 1582.2684 758.58 
L 1582.2684 758.58 
L 1621.7916 758.58 
L 1621.7916 758.58 
L 1661.3148 758.58 
L 1661.3148 758.58 
L 1700.838 758.58 
L 1700.838 758.58 
L 1740.3612 758.58 
L 1740.3612 758.58 
L 1779.8844 758.58 
L 1779.8844 758.58 
L 1819.4076 758.58 
L 1819.4076 758.58 
L 1858.9308 758.58 
L 1858.9308 758.58 
L 1898.454 758.58 
L 1898.454 758.58 
L 1937.9772 758.58 
L 1937.9772 758.58 
L 1977.5004 758.58 
L 1977.5004 758.58 
L 2017.0236 758.58 
L 2017.0236 758.58 
L 2056.5468 758.58 
L 2056.5468 758.58 
L 2096.07 758.58 
L 2096.07 758.58 
L 2135.5932 758.58 
L 2135.5932 758.58 
L 2175.1164 758.58 
L 2175.1164 758.58 
L 2214.6396 758.58 
L 2214.6396 758.58 
L 2254.1628 758.58 
L 2254.1628 758.58 
L 2293.686 758.58 
L 2293.686 758.58 
L 2333.2092 758.58 
L 2333.2092 758.58 
L 2372.7324 758.58 
L 2372.7324 758.58 
L 2412.2556 758.58 
L 2412.2556 758.58 
L 2451.7788 758.58 
L 2451.7788 758.58 
L 2491.302 758.58 
L 2491.302 758.58 
L 2530.8252 758.58 
L 2530.8252 758.58 
L 2570.3484 758.58 
L 2570.3484 758.58 
L 2609.8716 758.58 
L 2609.8716 758.58 
L 2649.3948 758.58 
L 2649.3948 758.58 
L 2688.918 758.58 
L 2688.918 758.58 
L 2728.4412 758.58 
L 2728.4412 758.58 
L 2767.9644 758.58 
L 2767.9644 758.58 
L 2807.4876 758.58 
L 2807.4876 758.58 
L 2847.0108 758.58 
L 2847.0108 758.58 
L 2886.534 758.58 
L 2886.534 758.58 
L 2926.0572 758.58 
L 2926.0572 758.58 
L 2965.5804 758.58 
L 2965.5804 758.58 
L 3005.1036 758.58 
L 3005.1036 758.58 
L 3044.6268 758.58 
L 3044.6268 758.58 
L 3084.15 758.58 
L 3084.15 758.58 
L 3123.6732 758.58 
L 3123.6732 758.58 
L 3163.1964 758.58 
L 3163.1964 758.58 
" clip-path="url(#pa6eecd2e34)" style="fill: #ff7f0e; opacity: 0.6; stroke: #aa3300; stroke-width: 3; stroke-linejoin: miter"/>
   </g>
   <g id="patch_7">
    <path d="M 119.91 758.58 
L 119.91 56.88 
" style="fill: none; stroke: #000000; stroke-width: 0.8; stroke-linejoin: miter; stroke-linecap: square"/>
   </g>
   <g id="patch_8">
    <path d="M 1107.99 758.58 
L 1107.99 56.88 
" style="fill: none; stroke: #000000; stroke-width: 0.8; stroke-linejoin: miter; stroke-linecap: square"/>
   </g>
   <g id="patch_9">
    <path d="M 119.91 758.58 
L 1107.99 758.58 
" style="fill: none; stroke: #000000; stroke-width: 0.8; stroke-linejoin: miter; stroke-linecap: square"/>
   </g>
   <g id="patch_10">
    <path d="M 119.91 56.88 
L 1107.99 56.88 
" style="fill: none; stroke: #000000; stroke-width: 0.8; stroke-linejoin: miter; stroke-linecap: square"/>
   </g>
   <g id="text_19">
    <!-- x$\mathregular{10^{-2}}$ -->
    <g transform="translate(119.91 50.9175) scale(0.3 -0.3)">
     <defs>
      <path id="ArialMT-78" d="M 47 0 
L 1259 1725 
L 138 3319 
L 841 3319 
L 1350 2541 
Q 1494 2319 1581 2169 
Q 1719 2375 1834 2534 
L 2394 3319 
L 3066 3319 
L 1919 1756 
L 3153 0 
L 2463 0 
L 1781 1031 
L 1600 1309 
L 728 0 
L 47 0 
z
" transform="scale(0.015625)"/>
      <path id="ArialMT-2212" d="M 3381 1997 
L 356 1997 
L 356 2522 
L 3381 2522 
L 3381 1997 
z
" transform="scale(0.015625)"/>
     </defs>
     <use xlink:href="#ArialMT-78" transform="translate(0 0.99375)"/>
     <use xlink:href="#ArialMT-31" transform="translate(50 0.99375)"/>
     <use xlink:href="#ArialMT-30" transform="translate(105.615234 0.99375)"/>
     <use xlink:href="#ArialMT-2212" transform="translate(162.972813 70.6875) scale(0.7)"/>
     <use xlink:href="#ArialMT-32" transform="translate(203.851719 70.6875) scale(0.7)"/>
    </g>
   </g>
   <g id="text_20">
    <!-- Germanium -->
    <g transform="translate(483.367969 46.9425) scale(0.5 -0.5)">
     <defs>
      <path id="ArialMT-47" d="M 2638 1797 
L 2638 2334 
L 4578 2338 
L 4578 638 
Q 4131 281 3656 101 
Q 3181 -78 2681 -78 
Q 2006 -78 1454 211 
Q 903 500 622 1047 
Q 341 1594 341 2269 
Q 341 2938 620 3517 
Q 900 4097 1425 4378 
Q 1950 4659 2634 4659 
Q 3131 4659 3532 4498 
Q 3934 4338 4162 4050 
Q 4391 3763 4509 3300 
L 3963 3150 
Q 3859 3500 3706 3700 
Q 3553 3900 3268 4020 
Q 2984 4141 2638 4141 
Q 2222 4141 1919 4014 
Q 1616 3888 1430 3681 
Q 1244 3475 1141 3228 
Q 966 2803 966 2306 
Q 966 1694 1177 1281 
Q 1388 869 1791 669 
Q 2194 469 2647 469 
Q 3041 469 3416 620 
Q 3791 772 3984 944 
L 3984 1797 
L 2638 1797 
z
" transform="scale(0.015625)"/>
      <path id="ArialMT-6d" d="M 422 0 
L 422 3319 
L 925 3319 
L 925 2853 
Q 1081 3097 1340 3245 
Q 1600 3394 1931 3394 
Q 2300 3394 2536 3241 
Q 2772 3088 2869 2813 
Q 3263 3394 3894 3394 
Q 4388 3394 4653 3120 
Q 4919 2847 4919 2278 
L 4919 0 
L 4359 0 
L 4359 2091 
Q 4359 2428 4304 2576 
Q 4250 2725 4106 2815 
Q 3963 2906 3769 2906 
Q 3419 2906 3187 2673 
Q 2956 2441 2956 1928 
L 2956 0 
L 2394 0 
L 2394 2156 
Q 2394 2531 2256 2718 
Q 2119 2906 1806 2906 
Q 1569 2906 1367 2781 
Q 1166 2656 1075 2415 
Q 984 2175 984 1722 
L 984 0 
L 422 0 
z
" transform="scale(0.015625)"/>
      <path id="ArialMT-61" d="M 2588 409 
Q 2275 144 1986 34 
Q 1697 -75 1366 -75 
Q 819 -75 525 192 
Q 231 459 231 875 
Q 231 1119 342 1320 
Q 453 1522 633 1644 
Q 813 1766 1038 1828 
Q 1203 1872 1538 1913 
Q 2219 1994 2541 2106 
Q 2544 2222 2544 2253 
Q 2544 2597 2384 2738 
Q 2169 2928 1744 2928 
Q 1347 2928 1158 2789 
Q 969 2650 878 2297 
L 328 2372 
Q 403 2725 575 2942 
Q 747 3159 1072 3276 
Q 1397 3394 1825 3394 
Q 2250 3394 2515 3294 
Q 2781 3194 2906 3042 
Q 3031 2891 3081 2659 
Q 3109 2516 3109 2141 
L 3109 1391 
Q 3109 606 3145 398 
Q 3181 191 3288 0 
L 2700 0 
Q 2613 175 2588 409 
z
M 2541 1666 
Q 2234 1541 1622 1453 
Q 1275 1403 1131 1340 
Q 988 1278 909 1158 
Q 831 1038 831 891 
Q 831 666 1001 516 
Q 1172 366 1500 366 
Q 1825 366 2078 508 
Q 2331 650 2450 897 
Q 2541 1088 2541 1459 
L 2541 1666 
z
" transform="scale(0.015625)"/>
      <path id="ArialMT-75" d="M 2597 0 
L 2597 488 
Q 2209 -75 1544 -75 
Q 1250 -75 995 37 
Q 741 150 617 320 
Q 494 491 444 738 
Q 409 903 409 1263 
L 409 3319 
L 972 3319 
L 972 1478 
Q 972 1038 1006 884 
Q 1059 663 1231 536 
Q 1403 409 1656 409 
Q 1909 409 2131 539 
Q 2353 669 2445 892 
Q 2538 1116 2538 1541 
L 2538 3319 
L 3100 3319 
L 3100 0 
L 2597 0 
z
" transform="scale(0.015625)"/>
     </defs>
     <use xlink:href="#ArialMT-47"/>
     <use xlink:href="#ArialMT-65" x="77.783203"/>
     <use xlink:href="#ArialMT-72" x="133.398438"/>
     <use xlink:href="#ArialMT-6d" x="166.699219"/>
     <use xlink:href="#ArialMT-61" x="250"/>
     <use xlink:href="#ArialMT-6e" x="305.615234"/>
     <use xlink:href="#ArialMT-69" x="361.230469"/>
     <use xlink:href="#ArialMT-75" x="383.447266"/>
     <use xlink:href="#ArialMT-6d" x="439.0625"/>
    </g>
   </g>
   <g id="legend_1">
    <g id="patch_11">
     <path d="M 482.93375 317.1175 
L 1079.99 317.1175 
Q 1087.99 317.1175 1087.99 309.1175 
L 1087.99 84.88 
Q 1087.99 76.88 1079.99 76.88 
L 482.93375 76.88 
Q 474.93375 76.88 474.93375 84.88 
L 474.93375 309.1175 
Q 474.93375 317.1175 482.93375 317.1175 
z
" style="fill: #ffffff; opacity: 0.8; stroke: #cccccc; stroke-linejoin: miter"/>
    </g>
    <g id="patch_12">
     <path d="M 490.93375 121.51125 
L 570.93375 121.51125 
L 570.93375 93.51125 
L 490.93375 93.51125 
z
" style="fill: #ff7f0e; opacity: 0.6; stroke: #aa3300; stroke-width: 3; stroke-linejoin: miter"/>
    </g>
    <g id="text_21">
     <!-- Lindhard -->
     <g transform="translate(602.93375 121.51125) scale(0.4 -0.4)">
      <defs>
       <path id="ArialMT-4c" d="M 469 0 
L 469 4581 
L 1075 4581 
L 1075 541 
L 3331 541 
L 3331 0 
L 469 0 
z
" transform="scale(0.015625)"/>
       <path id="ArialMT-68" d="M 422 0 
L 422 4581 
L 984 4581 
L 984 2938 
Q 1378 3394 1978 3394 
Q 2347 3394 2619 3248 
Q 2891 3103 3008 2847 
Q 3125 2591 3125 2103 
L 3125 0 
L 2563 0 
L 2563 2103 
Q 2563 2525 2380 2717 
Q 2197 2909 1863 2909 
Q 1613 2909 1392 2779 
Q 1172 2650 1078 2428 
Q 984 2206 984 1816 
L 984 0 
L 422 0 
z
" transform="scale(0.015625)"/>
      </defs>
      <use xlink:href="#ArialMT-4c"/>
      <use xlink:href="#ArialMT-69" x="55.615234"/>
      <use xlink:href="#ArialMT-6e" x="77.832031"/>
      <use xlink:href="#ArialMT-64" x="133.447266"/>
      <use xlink:href="#ArialMT-68" x="189.0625"/>
      <use xlink:href="#ArialMT-61" x="244.677734"/>
      <use xlink:href="#ArialMT-72" x="300.292969"/>
      <use xlink:href="#ArialMT-64" x="333.59375"/>
     </g>
    </g>
    <g id="patch_13">
     <path d="M 490.93375 178.0925 
L 570.93375 178.0925 
L 570.93375 150.0925 
L 490.93375 150.0925 
z
" style="fill: #1f77b4; opacity: 0.6; stroke: #000080; stroke-width: 3; stroke-linejoin: miter"/>
    </g>
    <g id="text_22">
     <!-- Sorenson -->
     <g transform="translate(602.93375 178.0925) scale(0.4 -0.4)">
      <defs>
       <path id="ArialMT-53" d="M 288 1472 
L 859 1522 
Q 900 1178 1048 958 
Q 1197 738 1509 602 
Q 1822 466 2213 466 
Q 2559 466 2825 569 
Q 3091 672 3220 851 
Q 3350 1031 3350 1244 
Q 3350 1459 3225 1620 
Q 3100 1781 2813 1891 
Q 2628 1963 1997 2114 
Q 1366 2266 1113 2400 
Q 784 2572 623 2826 
Q 463 3081 463 3397 
Q 463 3744 659 4045 
Q 856 4347 1234 4503 
Q 1613 4659 2075 4659 
Q 2584 4659 2973 4495 
Q 3363 4331 3572 4012 
Q 3781 3694 3797 3291 
L 3216 3247 
Q 3169 3681 2898 3903 
Q 2628 4125 2100 4125 
Q 1550 4125 1298 3923 
Q 1047 3722 1047 3438 
Q 1047 3191 1225 3031 
Q 1400 2872 2139 2705 
Q 2878 2538 3153 2413 
Q 3553 2228 3743 1945 
Q 3934 1663 3934 1294 
Q 3934 928 3725 604 
Q 3516 281 3123 101 
Q 2731 -78 2241 -78 
Q 1619 -78 1198 103 
Q 778 284 539 648 
Q 300 1013 288 1472 
z
" transform="scale(0.015625)"/>
       <path id="ArialMT-6f" d="M 213 1659 
Q 213 2581 725 3025 
Q 1153 3394 1769 3394 
Q 2453 3394 2887 2945 
Q 3322 2497 3322 1706 
Q 3322 1066 3130 698 
Q 2938 331 2570 128 
Q 2203 -75 1769 -75 
Q 1072 -75 642 372 
Q 213 819 213 1659 
z
M 791 1659 
Q 791 1022 1069 705 
Q 1347 388 1769 388 
Q 2188 388 2466 706 
Q 2744 1025 2744 1678 
Q 2744 2294 2464 2611 
Q 2184 2928 1769 2928 
Q 1347 2928 1069 2612 
Q 791 2297 791 1659 
z
" transform="scale(0.015625)"/>
       <path id="ArialMT-73" d="M 197 991 
L 753 1078 
Q 800 744 1014 566 
Q 1228 388 1613 388 
Q 2000 388 2187 545 
Q 2375 703 2375 916 
Q 2375 1106 2209 1216 
Q 2094 1291 1634 1406 
Q 1016 1563 777 1677 
Q 538 1791 414 1992 
Q 291 2194 291 2438 
Q 291 2659 392 2848 
Q 494 3038 669 3163 
Q 800 3259 1026 3326 
Q 1253 3394 1513 3394 
Q 1903 3394 2198 3281 
Q 2494 3169 2634 2976 
Q 2775 2784 2828 2463 
L 2278 2388 
Q 2241 2644 2061 2787 
Q 1881 2931 1553 2931 
Q 1166 2931 1000 2803 
Q 834 2675 834 2503 
Q 834 2394 903 2306 
Q 972 2216 1119 2156 
Q 1203 2125 1616 2013 
Q 2213 1853 2448 1751 
Q 2684 1650 2818 1456 
Q 2953 1263 2953 975 
Q 2953 694 2789 445 
Q 2625 197 2315 61 
Q 2006 -75 1616 -75 
Q 969 -75 630 194 
Q 291 463 197 991 
z
" transform="scale(0.015625)"/>
      </defs>
      <use xlink:href="#ArialMT-53"/>
      <use xlink:href="#ArialMT-6f" x="66.699219"/>
      <use xlink:href="#ArialMT-72" x="122.314453"/>
      <use xlink:href="#ArialMT-65" x="155.615234"/>
      <use xlink:href="#ArialMT-6e" x="211.230469"/>
      <use xlink:href="#ArialMT-73" x="266.845703"/>
      <use xlink:href="#ArialMT-6f" x="316.845703"/>
      <use xlink:href="#ArialMT-6e" x="372.460938"/>
     </g>
    </g>
    <g id="line2d_73">
     <path d="M 490.93375 221.16125 
L 530.93375 221.16125 
L 570.93375 221.16125 
" style="fill: none; stroke: #000000; stroke-opacity: 0.7; stroke-width: 2; stroke-linecap: square"/>
    </g>
    <g id="text_23">
     <!-- Small Res (1/5, Lindhard) -->
     <g transform="translate(602.93375 235.16125) scale(0.4 -0.4)">
      <defs>
       <path id="ArialMT-52" d="M 503 0 
L 503 4581 
L 2534 4581 
Q 3147 4581 3465 4457 
Q 3784 4334 3975 4021 
Q 4166 3709 4166 3331 
Q 4166 2844 3850 2509 
Q 3534 2175 2875 2084 
Q 3116 1969 3241 1856 
Q 3506 1613 3744 1247 
L 4541 0 
L 3778 0 
L 3172 953 
Q 2906 1366 2734 1584 
Q 2563 1803 2427 1890 
Q 2291 1978 2150 2013 
Q 2047 2034 1813 2034 
L 1109 2034 
L 1109 0 
L 503 0 
z
M 1109 2559 
L 2413 2559 
Q 2828 2559 3062 2645 
Q 3297 2731 3419 2920 
Q 3541 3109 3541 3331 
Q 3541 3656 3305 3865 
Q 3069 4075 2559 4075 
L 1109 4075 
L 1109 2559 
z
" transform="scale(0.015625)"/>
       <path id="ArialMT-2f" d="M 0 -78 
L 1328 4659 
L 1778 4659 
L 453 -78 
L 0 -78 
z
" transform="scale(0.015625)"/>
       <path id="ArialMT-2c" d="M 569 0 
L 569 641 
L 1209 641 
L 1209 0 
Q 1209 -353 1084 -570 
Q 959 -788 688 -906 
L 531 -666 
Q 709 -588 793 -436 
Q 878 -284 888 0 
L 569 0 
z
" transform="scale(0.015625)"/>
      </defs>
      <use xlink:href="#ArialMT-53"/>
      <use xlink:href="#ArialMT-6d" x="66.699219"/>
      <use xlink:href="#ArialMT-61" x="150"/>
      <use xlink:href="#ArialMT-6c" x="205.615234"/>
      <use xlink:href="#ArialMT-6c" x="227.832031"/>
      <use xlink:href="#ArialMT-20" x="250.048828"/>
      <use xlink:href="#ArialMT-52" x="277.832031"/>
      <use xlink:href="#ArialMT-65" x="350.048828"/>
      <use xlink:href="#ArialMT-73" x="405.664062"/>
      <use xlink:href="#ArialMT-20" x="455.664062"/>
      <use xlink:href="#ArialMT-28" x="483.447266"/>
      <use xlink:href="#ArialMT-31" x="516.748047"/>
      <use xlink:href="#ArialMT-2f" x="572.363281"/>
      <use xlink:href="#ArialMT-35" x="600.146484"/>
      <use xlink:href="#ArialMT-2c" x="655.761719"/>
      <use xlink:href="#ArialMT-20" x="683.544922"/>
      <use xlink:href="#ArialMT-4c" x="711.328125"/>
      <use xlink:href="#ArialMT-69" x="766.943359"/>
      <use xlink:href="#ArialMT-6e" x="789.160156"/>
      <use xlink:href="#ArialMT-64" x="844.775391"/>
      <use xlink:href="#ArialMT-68" x="900.390625"/>
      <use xlink:href="#ArialMT-61" x="956.005859"/>
      <use xlink:href="#ArialMT-72" x="1011.621094"/>
      <use xlink:href="#ArialMT-64" x="1044.921875"/>
      <use xlink:href="#ArialMT-29" x="1100.537109"/>
     </g>
    </g>
    <g id="line2d_74">
     <path d="M 490.93375 278.69875 
L 530.93375 278.69875 
L 570.93375 278.69875 
" style="fill: none; stroke-dasharray: 7.4,3.2; stroke-dashoffset: 0; stroke: #000000; stroke-opacity: 0.7; stroke-width: 2"/>
    </g>
    <g id="text_24">
     <!-- Small Res (1/5, Sorenson) -->
     <g transform="translate(602.93375 292.69875) scale(0.4 -0.4)">
      <use xlink:href="#ArialMT-53"/>
      <use xlink:href="#ArialMT-6d" x="66.699219"/>
      <use xlink:href="#ArialMT-61" x="150"/>
      <use xlink:href="#ArialMT-6c" x="205.615234"/>
      <use xlink:href="#ArialMT-6c" x="227.832031"/>
      <use xlink:href="#ArialMT-20" x="250.048828"/>
      <use xlink:href="#ArialMT-52" x="277.832031"/>
      <use xlink:href="#ArialMT-65" x="350.048828"/>
      <use xlink:href="#ArialMT-73" x="405.664062"/>
      <use xlink:href="#ArialMT-20" x="455.664062"/>
      <use xlink:href="#ArialMT-28" x="483.447266"/>
      <use xlink:href="#ArialMT-31" x="516.748047"/>
      <use xlink:href="#ArialMT-2f" x="572.363281"/>
      <use xlink:href="#ArialMT-35" x="600.146484"/>
      <use xlink:href="#ArialMT-2c" x="655.761719"/>
      <use xlink:href="#ArialMT-20" x="683.544922"/>
      <use xlink:href="#ArialMT-53" x="711.328125"/>
      <use xlink:href="#ArialMT-6f" x="778.027344"/>
      <use xlink:href="#ArialMT-72" x="833.642578"/>
      <use xlink:href="#ArialMT-65" x="866.943359"/>
      <use xlink:href="#ArialMT-6e" x="922.558594"/>
      <use xlink:href="#ArialMT-73" x="978.173828"/>
      <use xlink:href="#ArialMT-6f" x="1028.173828"/>
      <use xlink:href="#ArialMT-6e" x="1083.789062"/>
      <use xlink:href="#ArialMT-29" x="1139.404297"/>
     </g>
    </g>
   </g>
  </g>
 </g>
 <defs>
  <clipPath id="pa6eecd2e34">
   <rect x="119.91" y="56.88" width="988.08" height="701.7"/>
  </clipPath>
 </defs>
</svg>
